<svg id="visual" viewBox="0 0 190 720" width="190" height="720" xmlns="http://www.w3.org/2000/svg" xmlns:xlink="http://www.w3.org/1999/xlink" version="1.1"><g><g transform="translate(128 457)"><path d="M7.7 -8.7C9.3 -6 9.5 -3 9.6 0.1C9.7 3.3 9.8 6.6 8.2 9.4C6.6 12.2 3.3 14.4 0.1 14.3C-3.2 14.3 -6.3 11.9 -8.5 9.1C-10.8 6.3 -12.1 3.2 -12.1 0C-12.1 -3.2 -10.8 -6.3 -8.6 -9C-6.3 -11.7 -3.2 -13.8 -0.1 -13.7C3 -13.7 6 -11.4 7.7 -8.7Z" fill="#343434"></path></g><g transform="translate(133 145)"><path d="M4.8 -4.6C6 -3.6 6.7 -1.8 6.4 -0.2C6.2 1.3 5.1 2.6 3.8 3.4C2.6 4.3 1.3 4.6 -0.1 4.7C-1.5 4.7 -3 4.6 -4.1 3.8C-5.2 3 -6 1.5 -5.9 0.1C-5.8 -1.2 -4.7 -2.5 -3.6 -3.5C-2.5 -4.5 -1.2 -5.3 0.3 -5.5C1.8 -5.8 3.6 -5.6 4.8 -4.6Z" fill="#343434"></path></g><g transform="translate(112 336)"><path d="M3.8 -3.2C5.1 -2.5 6.5 -1.2 6.7 0.2C6.9 1.6 5.9 3.3 4.6 4.2C3.3 5.2 1.6 5.5 0.2 5.3C-1.3 5.2 -2.6 4.6 -3.3 3.6C-4 2.6 -4.1 1.3 -4 0.1C-3.8 -1 -3.5 -2.1 -2.8 -2.7C-2.1 -3.4 -1 -3.7 0.1 -3.8C1.2 -3.9 2.5 -3.8 3.8 -3.2Z" fill="#343434"></path></g><g transform="translate(70 118)"><path d="M8.4 -8.9C10.5 -6.2 11.7 -3.1 11.8 0C11.8 3.2 10.7 6.4 8.6 9C6.4 11.5 3.2 13.4 0.6 12.8C-2.1 12.2 -4.2 9.2 -5.6 6.7C-7.1 4.2 -7.9 2.1 -8.8 -0.9C-9.7 -3.9 -10.8 -7.9 -9.3 -10.6C-7.9 -13.2 -3.9 -14.6 -0.4 -14.2C3.1 -13.8 6.2 -11.6 8.4 -8.9Z" fill="#343434"></path></g><g transform="translate(67 499)"><path d="M3.9 -4.1C4.8 -3.1 4.8 -1.6 4.6 -0.2C4.3 1.1 3.8 2.2 3 2.9C2.2 3.6 1.1 4 -0.3 4.3C-1.6 4.6 -3.2 4.7 -4.1 3.9C-5 3.2 -5.2 1.6 -4.9 0.3C-4.6 -1 -3.8 -2 -2.9 -3C-2 -4 -1 -5 0.3 -5.3C1.6 -5.6 3.1 -5.2 3.9 -4.1Z" fill="#343434"></path></g><g transform="translate(21 536)"><path d="M7.6 -7.6C10 -5.2 12.1 -2.6 12.2 0C12.2 2.7 10.2 5.4 7.8 7.2C5.4 9 2.7 10 0.3 9.7C-2.1 9.4 -4.3 7.9 -6.9 6.1C-9.5 4.3 -12.7 2.1 -13.3 -0.6C-13.9 -3.3 -11.9 -6.6 -9.3 -9.1C-6.6 -11.6 -3.3 -13.2 -0.4 -12.8C2.6 -12.5 5.2 -10.1 7.6 -7.6Z" fill="#343434"></path></g><g transform="translate(64 173)"><path d="M4.5 -4.6C5.7 -3.2 6.6 -1.6 6.8 0.2C7.1 2.1 6.7 4.2 5.4 5.5C4.2 6.8 2.1 7.3 0.4 7C-1.4 6.6 -2.8 5.4 -3.9 4.1C-4.9 2.8 -5.7 1.4 -5.6 0C-5.6 -1.3 -4.8 -2.7 -3.7 -4.1C-2.7 -5.5 -1.3 -7 0.1 -7.1C1.6 -7.2 3.2 -6 4.5 -4.6Z" fill="#343434"></path></g><g transform="translate(1 246)"><path d="M7 -7.2C9 -5.1 10.3 -2.6 10.3 0C10.2 2.5 8.8 4.9 6.9 6.7C4.9 8.5 2.5 9.6 0 9.6C-2.5 9.6 -4.9 8.5 -6.8 6.7C-8.6 4.9 -9.9 2.5 -9.6 0.3C-9.3 -1.8 -7.4 -3.7 -5.5 -5.8C-3.7 -7.9 -1.8 -10.2 0.4 -10.6C2.6 -11 5.1 -9.3 7 -7.2Z" fill="#343434"></path></g><g transform="translate(187 238)"><path d="M5.8 -5.7C7.2 -4.5 7.7 -2.2 7.8 0.2C8 2.6 7.9 5.2 6.5 7.1C5.2 9 2.6 10.2 0.6 9.6C-1.4 9 -2.9 6.7 -4.1 4.8C-5.3 2.9 -6.3 1.4 -6.5 -0.2C-6.7 -1.8 -6.1 -3.6 -4.8 -4.9C-3.6 -6.2 -1.8 -7 0.2 -7.2C2.2 -7.4 4.5 -7 5.8 -5.7Z" fill="#343434"></path></g><g transform="translate(186 445)"><path d="M4.5 -4.9C5.3 -3.7 5.1 -1.8 4.9 -0.2C4.6 1.4 4.4 2.8 3.6 4C2.8 5.2 1.4 6.2 -0.1 6.2C-1.6 6.3 -3.2 5.5 -4 4.4C-4.8 3.2 -4.8 1.6 -4.9 -0.1C-5 -1.7 -5.1 -3.5 -4.3 -4.7C-3.5 -6 -1.7 -6.8 0 -6.9C1.8 -6.9 3.7 -6.2 4.5 -4.9Z" fill="#343434"></path></g><g transform="translate(32 712)"><path d="M6.5 -6.1C8.7 -4.3 11 -2.1 11 -0.1C10.9 2 8.5 4 6.3 5.6C4 7.2 2 8.3 -0.3 8.6C-2.6 8.9 -5.2 8.3 -6.8 6.7C-8.5 5.2 -9.2 2.6 -9.4 -0.2C-9.6 -2.9 -9.2 -5.9 -7.5 -7.7C-5.9 -9.6 -2.9 -10.3 -0.4 -9.9C2.1 -9.5 4.3 -8 6.5 -6.1Z" fill="#343434"></path></g><g transform="translate(9 181)"><path d="M4.7 -5.2C5.8 -3.5 6.4 -1.8 6.4 0C6.4 1.8 5.8 3.5 4.7 4.8C3.5 6 1.8 6.8 -0.2 6.9C-2.1 7.1 -4.2 6.7 -5.5 5.4C-6.9 4.2 -7.5 2.1 -7.1 0.4C-6.7 -1.3 -5.3 -2.5 -3.9 -4.2C-2.5 -5.8 -1.3 -7.9 0.2 -8.1C1.8 -8.4 3.5 -6.8 4.7 -5.2Z" fill="#343434"></path></g><g transform="translate(30 444)"><path d="M3.5 -3.3C4.6 -2.5 5.4 -1.2 5.5 0.1C5.6 1.4 5 2.9 3.9 4.2C2.9 5.5 1.4 6.8 0 6.8C-1.4 6.8 -2.9 5.5 -4.1 4.2C-5.4 2.9 -6.4 1.4 -6.4 0.1C-6.3 -1.3 -5.1 -2.6 -3.9 -3.5C-2.6 -4.3 -1.3 -4.6 0 -4.6C1.2 -4.5 2.5 -4.1 3.5 -3.3Z" fill="#343434"></path></g><g transform="translate(145 544)"><path d="M7.6 -7.3C9.9 -5.3 11.9 -2.6 12 0.1C12.1 2.8 10.3 5.7 8 7.7C5.7 9.7 2.8 10.8 0.3 10.5C-2.3 10.2 -4.5 8.5 -6.4 6.5C-8.3 4.5 -9.9 2.3 -10.1 -0.2C-10.3 -2.7 -9.2 -5.3 -7.2 -7.3C-5.3 -9.3 -2.7 -10.5 0 -10.5C2.6 -10.5 5.3 -9.2 7.6 -7.3Z" fill="#343434"></path></g><g transform="translate(120 253)"><path d="M7.7 -8.5C9.5 -6 9.9 -3 9.6 -0.3C9.3 2.4 8.2 4.8 6.5 6.8C4.8 8.8 2.4 10.4 -0.6 11C-3.5 11.6 -7.1 11.1 -8.9 9.1C-10.6 7.1 -10.7 3.5 -9.9 0.8C-9.1 -2 -7.5 -3.9 -5.7 -6.4C-3.9 -8.9 -2 -12 0.5 -12.5C3 -13 6 -11 7.7 -8.5Z" fill="#343434"></path></g><g transform="translate(153 286)"><path d="M5 -5.6C5.9 -4.2 5.5 -2.1 5.4 -0.1C5.3 1.9 5.6 3.9 4.7 5.1C3.9 6.3 1.9 6.9 -0.1 7C-2.1 7.1 -4.3 6.7 -5.2 5.5C-6.1 4.3 -5.9 2.1 -5.9 0C-5.9 -2.1 -6.2 -4.3 -5.2 -5.7C-4.3 -7.1 -2.1 -7.8 0 -7.8C2.1 -7.8 4.2 -7 5 -5.6Z" fill="#343434"></path></g><g transform="translate(91 564)"><path d="M9.8 -10.1C12 -7.6 12.7 -3.8 12.7 0C12.8 3.8 12.1 7.6 9.9 9.8C7.6 11.9 3.8 12.4 0.4 11.9C-2.9 11.5 -5.9 10.1 -8.1 8C-10.4 5.9 -12 2.9 -12.4 -0.4C-12.8 -3.8 -12 -7.5 -9.8 -10C-7.5 -12.5 -3.8 -13.7 0 -13.7C3.8 -13.7 7.6 -12.5 9.8 -10.1Z" fill="#343434"></path></g><g transform="translate(186 45)"><path d="M7.1 -7.3C9 -5.3 10 -2.6 9.8 -0.3C9.5 2.1 7.9 4.2 6 5.7C4.2 7.1 2.1 8 -0.3 8.3C-2.8 8.7 -5.5 8.5 -7.8 7C-10.1 5.5 -11.9 2.8 -11.8 0.1C-11.7 -2.6 -9.7 -5.2 -7.4 -7.2C-5.2 -9.3 -2.6 -10.9 0 -10.9C2.6 -10.9 5.3 -9.4 7.1 -7.3Z" fill="#343434"></path></g><g transform="translate(142 377)"><path d="M6 -5.8C7.5 -4.5 8.2 -2.3 7.7 -0.5C7.2 1.2 5.5 2.5 4 3.7C2.5 4.8 1.2 5.9 -0.3 6.2C-1.8 6.5 -3.6 5.9 -5 4.8C-6.4 3.6 -7.4 1.8 -7.7 -0.2C-7.9 -2.3 -7.4 -4.6 -6 -5.8C-4.6 -7.1 -2.3 -7.4 0 -7.3C2.3 -7.3 4.5 -7.1 6 -5.8Z" fill="#343434"></path></g><g transform="translate(176 606)"><path d="M9.4 -10.4C10.9 -7.9 9.9 -3.9 9.9 0C9.9 4 10.9 7.9 9.4 10.2C7.9 12.4 4 12.9 0.9 12C-2.2 11.1 -4.3 8.8 -6 6.6C-7.7 4.3 -9 2.2 -9 0C-9 -2.2 -7.8 -4.4 -6.1 -6.8C-4.4 -9.3 -2.2 -12.1 0.9 -13C3.9 -13.8 7.9 -12.8 9.4 -10.4Z" fill="#343434"></path></g><g transform="translate(101 27)"><path d="M7.3 -8.6C8.7 -5.8 8.7 -2.9 8.8 0.1C8.9 3.1 9.1 6.2 7.7 8.4C6.2 10.6 3.1 11.8 0.2 11.6C-2.8 11.5 -5.6 9.9 -8.1 7.8C-10.7 5.6 -13 2.8 -13.3 -0.3C-13.6 -3.4 -11.9 -6.8 -9.3 -9.5C-6.8 -12.3 -3.4 -14.6 -0.2 -14.3C2.9 -14.1 5.8 -11.4 7.3 -8.6Z" fill="#343434"></path></g><g transform="translate(140 689)"><path d="M3.3 -3C4.4 -2.2 5.5 -1.1 5.7 0.1C5.8 1.4 5 2.7 3.9 3.5C2.7 4.2 1.4 4.3 -0.1 4.4C-1.6 4.5 -3.2 4.6 -4.3 3.9C-5.5 3.2 -6.2 1.6 -6 0.3C-5.7 -1.1 -4.4 -2.1 -3.3 -3C-2.1 -3.9 -1.1 -4.6 0 -4.6C1.1 -4.6 2.2 -3.9 3.3 -3Z" fill="#343434"></path></g><g transform="translate(12 383)"><path d="M3.6 -3.7C4.9 -2.4 6.2 -1.2 6.1 -0.1C6 1 4.5 1.9 3.2 2.9C1.9 3.8 1 4.7 -0.4 5.1C-1.8 5.5 -3.5 5.4 -4.6 4.5C-5.8 3.5 -6.3 1.8 -6.1 0.2C-5.9 -1.4 -5 -2.7 -3.8 -4C-2.7 -5.3 -1.4 -6.6 -0.1 -6.5C1.2 -6.4 2.4 -5 3.6 -3.7Z" fill="#343434"></path></g><g transform="translate(69 66)"><path d="M4.8 -4.2C6.5 -3.2 8.2 -1.6 8.1 -0.1C8 1.4 6.2 2.9 4.5 3.9C2.9 4.9 1.4 5.5 -0.6 6.1C-2.6 6.6 -5.2 7.2 -6.9 6.2C-8.7 5.2 -9.7 2.6 -9.7 0C-9.6 -2.5 -8.6 -5 -6.8 -6.1C-5 -7.1 -2.5 -6.8 -0.5 -6.3C1.6 -5.9 3.2 -5.3 4.8 -4.2Z" fill="#343434"></path></g><g transform="translate(22 126)"><path d="M3.5 -3C4.6 -2.4 5.7 -1.2 5.6 0C5.6 1.1 4.5 2.3 3.4 3.2C2.3 4.1 1.1 4.7 0.2 4.6C-0.8 4.4 -1.7 3.5 -2.7 2.6C-3.7 1.7 -4.8 0.8 -5 -0.3C-5.3 -1.4 -4.7 -2.7 -3.7 -3.4C-2.7 -4 -1.4 -3.9 -0.1 -3.8C1.2 -3.7 2.4 -3.6 3.5 -3Z" fill="#343434"></path></g><g transform="translate(54 384)"><path d="M5.6 -6.2C6.5 -4.7 6 -2.3 5.9 -0.2C5.7 2 5.9 4 4.9 5C4 5.9 2 5.8 0.2 5.6C-1.6 5.4 -3.2 5.1 -4.7 4.1C-6.1 3.2 -7.5 1.6 -7.6 -0.1C-7.8 -1.8 -6.6 -3.6 -5.1 -5.1C-3.6 -6.7 -1.8 -8 0.3 -8.2C2.3 -8.5 4.7 -7.7 5.6 -6.2Z" fill="#343434"></path></g><g transform="translate(4 680)"><path d="M4 -4.4C5 -2.9 5.6 -1.5 5.8 0.2C6 1.9 5.9 3.8 4.8 4.9C3.8 5.9 1.9 6.1 0.3 5.8C-1.3 5.4 -2.5 4.6 -3.8 3.6C-5 2.5 -6.3 1.3 -6.6 -0.2C-6.8 -1.7 -6 -3.5 -4.7 -4.9C-3.5 -6.3 -1.7 -7.5 -0.1 -7.4C1.5 -7.2 2.9 -5.8 4 -4.4Z" fill="#343434"></path></g><g transform="translate(141 628)"><path d="M7.7 -7.7C9.3 -6.1 9.4 -3.1 9.4 0C9.4 3.1 9.3 6.2 7.8 7.8C6.2 9.4 3.1 9.6 -0.3 9.9C-3.6 10.2 -7.3 10.6 -9.6 8.9C-12 7.3 -13 3.6 -12.4 0.6C-11.8 -2.4 -9.5 -4.8 -7.2 -6.4C-4.8 -7.9 -2.4 -8.6 0.3 -9C3.1 -9.3 6.1 -9.2 7.7 -7.7Z" fill="#343434"></path></g><g transform="translate(45 248)"><path d="M3.7 -3.8C4.5 -3 4.5 -1.5 4.3 -0.2C4.1 1.1 3.7 2.1 2.9 3.2C2.1 4.3 1.1 5.4 -0.2 5.7C-1.6 5.9 -3.1 5.3 -3.8 4.2C-4.5 3.1 -4.4 1.6 -4.3 0.1C-4.1 -1.3 -4 -2.6 -3.3 -3.4C-2.6 -4.2 -1.3 -4.5 0.1 -4.6C1.5 -4.7 3 -4.6 3.7 -3.8Z" fill="#343434"></path></g><g transform="translate(123 95)"><path d="M6.1 -6.3C7.1 -5.1 6.4 -2.6 5.9 -0.5C5.5 1.7 5.2 3.3 4.3 5C3.3 6.6 1.7 8.3 -0.1 8.3C-1.8 8.4 -3.6 6.9 -5.2 5.3C-6.7 3.6 -8 1.8 -8.3 -0.3C-8.7 -2.5 -8.1 -5 -6.6 -6.1C-5 -7.3 -2.5 -7 0 -7.1C2.6 -7.1 5.1 -7.4 6.1 -6.3Z" fill="#343434"></path></g><g transform="translate(124 411)"><path d="M9.7 -8.9C12.1 -7.4 13.1 -3.7 12.4 -0.6C11.8 2.4 9.5 4.8 7.2 7.1C4.8 9.4 2.4 11.6 -0.7 12.4C-3.8 13.1 -7.7 12.3 -10.1 10C-12.5 7.7 -13.5 3.8 -13.1 0.4C-12.6 -3 -10.8 -6 -8.4 -7.5C-6 -9 -3 -9 0.4 -9.3C3.7 -9.7 7.4 -10.4 9.7 -8.9Z" fill="#343434"></path></g><g transform="translate(45 20)"><path d="M8 -8C10.3 -5.8 12 -2.9 12.1 0.1C12.1 3 10.6 6 8.3 7.7C6 9.3 3 9.6 0.6 9.1C-1.9 8.5 -3.7 7 -5.4 5.4C-7.1 3.7 -8.6 1.9 -8.7 -0.1C-8.9 -2.2 -7.7 -4.3 -6 -6.6C-4.3 -8.9 -2.2 -11.2 0.4 -11.6C2.9 -12 5.8 -10.3 8 -8Z" fill="#343434"></path></g><g transform="translate(168 121)"><path d="M3.1 -2.9C4.1 -2.1 5.1 -1 5.2 0.1C5.3 1.2 4.5 2.5 3.5 3.5C2.5 4.5 1.2 5.3 0.2 5.1C-0.9 4.9 -1.8 3.8 -2.9 2.8C-4.1 1.8 -5.4 0.9 -5.4 0C-5.5 -1 -4.2 -2 -3.1 -2.7C-2 -3.5 -1 -4.1 0 -4.1C1 -4.2 2.1 -3.6 3.1 -2.9Z" fill="#343434"></path></g><g transform="translate(3 495)"><path d="M5.9 -5.1C7.9 -3.9 9.9 -1.9 10.1 0.2C10.3 2.4 8.7 4.7 6.7 6.2C4.7 7.6 2.4 8.1 0.1 8C-2.1 7.9 -4.3 7.2 -5.7 5.7C-7.1 4.3 -7.8 2.1 -7.7 0C-7.7 -2.1 -7 -4.2 -5.6 -5.5C-4.2 -6.7 -2.1 -7.2 -0.1 -7.1C1.9 -7 3.9 -6.4 5.9 -5.1Z" fill="#343434"></path></g><g transform="translate(5 54)"><path d="M5.2 -5C6.3 -4 6.6 -2 6.6 0C6.6 2 6.3 4 5.2 5.2C4 6.3 2 6.6 0.3 6.3C-1.5 6 -2.9 5.2 -4.2 4.1C-5.5 2.9 -6.6 1.5 -6.8 -0.2C-7 -1.8 -6.2 -3.7 -4.9 -4.6C-3.7 -5.5 -1.8 -5.5 0.1 -5.6C2 -5.7 4 -5.9 5.2 -5Z" fill="#343434"></path></g><g transform="translate(64 214)"><path d="M6.1 -5.5C7.7 -4.5 8.5 -2.3 8.5 0C8.6 2.3 7.8 4.7 6.2 5.7C4.7 6.7 2.3 6.3 0.5 5.8C-1.3 5.3 -2.6 4.6 -3.6 3.6C-4.5 2.6 -5.1 1.3 -5.5 -0.4C-5.9 -2.1 -6 -4.1 -5.1 -5.1C-4.1 -6.1 -2.1 -5.9 0.1 -6C2.3 -6.1 4.5 -6.5 6.1 -5.5Z" fill="#343434"></path></g><g transform="translate(76 689)"><path d="M9.5 -10.8C11 -7.9 10.1 -4 9.1 -0.9C8.2 2.1 7.2 4.2 5.7 6.4C4.2 8.7 2.1 11.1 -0.6 11.7C-3.4 12.3 -6.7 11.2 -8.6 9C-10.4 6.7 -10.7 3.4 -10.9 -0.1C-11 -3.7 -11 -7.3 -9.2 -10.1C-7.3 -13 -3.7 -15 0.2 -15.1C4 -15.3 7.9 -13.6 9.5 -10.8Z" fill="#343434"></path></g><g transform="translate(144 193)"><path d="M8.5 -8.1C11.3 -5.8 13.9 -2.9 14.4 0.5C14.9 3.9 13.3 7.7 10.5 9.8C7.7 11.8 3.9 12 0.1 11.9C-3.8 11.9 -7.5 11.6 -9.3 9.6C-11 7.5 -10.7 3.8 -10.1 0.6C-9.6 -2.7 -8.8 -5.3 -7.1 -7.7C-5.3 -10 -2.7 -12 0.1 -12.2C2.9 -12.3 5.8 -10.5 8.5 -8.1Z" fill="#343434"></path></g><g transform="translate(97 376)"><path d="M4.1 -4.4C5 -3.2 5.2 -1.6 4.9 -0.2C4.7 1.1 4 2.2 3.1 3.1C2.2 4 1.1 4.7 0.1 4.6C-1 4.6 -1.9 3.7 -3.2 2.8C-4.4 1.9 -5.8 1 -5.8 0C-5.9 -1 -4.4 -2 -3.2 -3.2C-2 -4.4 -1 -5.8 0.3 -6.1C1.6 -6.4 3.2 -5.6 4.1 -4.4Z" fill="#343434"></path></g><g transform="translate(165 408)"><path d="M6.8 -7.5C8.1 -5.6 7.9 -2.8 7.3 -0.7C6.6 1.5 5.5 2.9 4.2 4.9C2.9 6.8 1.5 9.3 -0.1 9.4C-1.6 9.4 -3.2 7.1 -4.4 5.2C-5.5 3.2 -6.2 1.6 -6.2 0C-6.2 -1.6 -5.5 -3.2 -4.3 -5.1C-3.2 -7.1 -1.6 -9.5 0.6 -10.1C2.8 -10.7 5.6 -9.5 6.8 -7.5Z" fill="#343434"></path></g><g transform="translate(74 307)"><path d="M4.9 -5.3C6 -3.7 6.4 -1.9 6.5 0.1C6.6 2 6.4 4.1 5.2 5.3C4.1 6.4 2 6.7 0.2 6.5C-1.6 6.2 -3.2 5.5 -4.8 4.4C-6.4 3.2 -8 1.6 -8.2 -0.2C-8.5 -2.1 -7.4 -4.2 -5.8 -5.8C-4.2 -7.4 -2.1 -8.5 -0.1 -8.4C1.9 -8.3 3.7 -6.9 4.9 -5.3Z" fill="#343434"></path></g><g transform="translate(88 438)"><path d="M6.1 -6.6C7.6 -4.6 8.3 -2.3 8 -0.2C7.8 1.8 6.6 3.6 5.1 5.3C3.6 7 1.8 8.6 -0.5 9.1C-2.8 9.6 -5.6 9 -6.9 7.3C-8.2 5.6 -7.9 2.8 -7.9 0C-7.9 -2.8 -8.1 -5.6 -6.8 -7.6C-5.6 -9.6 -2.8 -10.9 -0.2 -10.6C2.3 -10.4 4.6 -8.7 6.1 -6.6Z" fill="#343434"></path></g><g transform="translate(186 668)"><path d="M3.5 -3.3C4.7 -2.3 5.8 -1.2 6.1 0.3C6.4 1.8 5.9 3.6 4.7 4.7C3.6 5.9 1.8 6.5 -0.1 6.6C-2.1 6.8 -4.1 6.5 -4.9 5.3C-5.7 4.1 -5.3 2.1 -4.8 0.5C-4.3 -1.1 -3.8 -2.1 -2.9 -3.1C-2.1 -4 -1.1 -4.8 0.1 -4.8C1.2 -4.9 2.3 -4.2 3.5 -3.3Z" fill="#343434"></path></g><g transform="translate(49 588)"><path d="M7.9 -7.6C9.4 -6.4 9.3 -3.2 8.9 -0.4C8.5 2.5 8 5 6.5 6.6C5 8.1 2.5 8.8 0.3 8.6C-2 8.3 -3.9 7.1 -5.7 5.5C-7.4 3.9 -9 2 -9.1 -0.2C-9.3 -2.3 -8.1 -4.6 -6.4 -5.9C-4.6 -7.1 -2.3 -7.2 0.4 -7.7C3.2 -8.1 6.4 -8.8 7.9 -7.6Z" fill="#343434"></path></g><g transform="translate(107 659)"><path d="M5.7 -6.7C7.2 -4.2 8 -2.1 8.8 0.8C9.7 3.7 10.4 7.4 8.9 9.1C7.4 10.7 3.7 10.3 0.7 9.6C-2.3 8.9 -4.7 8 -6.3 6.3C-7.8 4.7 -8.7 2.3 -8.5 0.2C-8.3 -2 -7.1 -3.9 -5.5 -6.4C-3.9 -8.9 -2 -11.9 0.1 -12C2.1 -12.1 4.2 -9.2 5.7 -6.7Z" fill="#343434"></path></g><g transform="translate(30 644)"><path d="M8 -7C10.3 -5.7 12.1 -2.8 12.1 -0.1C12 2.7 10 5.4 7.7 7.8C5.4 10.2 2.7 12.4 0.2 12.2C-2.2 11.9 -4.5 9.3 -6.6 6.9C-8.8 4.5 -10.9 2.2 -11.2 -0.3C-11.5 -2.8 -10 -5.7 -7.8 -7C-5.7 -8.3 -2.8 -8 0 -8C2.8 -8 5.7 -8.3 8 -7Z" fill="#343434"></path></g><g transform="translate(10 305)"><path d="M4.9 -4.5C6.6 -3.2 8.4 -1.6 8.7 0.3C9.1 2.2 7.8 4.4 6.1 5.5C4.4 6.6 2.2 6.7 0.2 6.5C-1.9 6.3 -3.7 6 -5.5 4.9C-7.3 3.7 -9 1.9 -9.1 0C-9.1 -2 -7.5 -3.9 -5.7 -5.3C-3.9 -6.7 -2 -7.5 -0.2 -7.3C1.6 -7.1 3.2 -5.9 4.9 -4.5Z" fill="#343434"></path></g><g transform="translate(1 586)"><path d="M6.1 -6.8C7.4 -4.7 7.8 -2.3 8.2 0.3C8.5 3 8.8 6.1 7.5 7.6C6.1 9.1 3 9 0.2 8.9C-2.7 8.7 -5.5 8.5 -7.3 7C-9.2 5.5 -10.1 2.7 -10.2 -0.1C-10.4 -3 -9.6 -5.9 -7.8 -8C-5.9 -10.1 -3 -11.3 -0.3 -11C2.3 -10.7 4.7 -8.8 6.1 -6.8Z" fill="#343434"></path></g><g transform="translate(181 181)"><path d="M5.7 -5.5C7.2 -4.3 8.1 -2.1 8.2 0.1C8.2 2.3 7.5 4.5 6 6.5C4.5 8.4 2.3 10 -0.3 10.3C-2.9 10.6 -5.8 9.6 -7.2 7.7C-8.7 5.8 -8.7 2.9 -8.1 0.6C-7.6 -1.8 -6.5 -3.5 -5 -4.8C-3.5 -6 -1.8 -6.7 0.2 -6.8C2.1 -7 4.3 -6.7 5.7 -5.5Z" fill="#343434"></path></g><g transform="translate(173 489)"><path d="M7.4 -8C8.7 -6.2 8 -3.1 7.4 -0.5C6.9 2 6.5 4 5.3 5.4C4 6.8 2 7.5 0 7.5C-2 7.5 -4 6.8 -5.5 5.4C-6.9 4 -7.9 2 -8.4 -0.6C-9 -3.1 -9.2 -6.2 -7.7 -8C-6.2 -9.7 -3.1 -10 0 -10C3.1 -10 6.2 -9.7 7.4 -8Z" fill="#343434"></path></g><g transform="translate(186 374)"><path d="M2.8 -2.9C3.4 -2.2 3.5 -1.1 3.5 0C3.5 1.1 3.5 2.3 2.9 3.3C2.3 4.4 1.1 5.4 0.1 5.2C-0.8 5.1 -1.7 3.8 -2.6 2.8C-3.4 1.7 -4.3 0.8 -4.6 -0.3C-4.8 -1.4 -4.5 -2.8 -3.7 -3.5C-2.8 -4.1 -1.4 -4.1 -0.1 -3.9C1.1 -3.8 2.2 -3.6 2.8 -2.9Z" fill="#343434"></path></g><g transform="translate(158 324)"><path d="M7.3 -6.6C9.4 -5.1 11.1 -2.6 11.3 0.3C11.6 3.1 10.4 6.2 8.3 8.5C6.2 10.8 3.1 12.3 0.2 12.1C-2.7 11.9 -5.3 9.9 -7.3 7.6C-9.3 5.3 -10.7 2.7 -10.3 0.3C-10 -2 -8.1 -4.1 -6.1 -5.6C-4.1 -7 -2 -8 0.3 -8.2C2.6 -8.5 5.1 -8.1 7.3 -6.6Z" fill="#343434"></path></g><g transform="translate(133 49)"><path d="M7.4 -6.5C9.5 -5.3 11 -2.6 11.4 0.3C11.7 3.3 10.8 6.6 8.7 9.1C6.6 11.6 3.3 13.2 0.7 12.5C-1.8 11.7 -3.7 8.6 -5.7 6.1C-7.7 3.7 -9.9 1.8 -9.9 0C-10 -1.9 -7.9 -3.9 -5.9 -5.1C-3.9 -6.4 -1.9 -7 0.3 -7.4C2.6 -7.7 5.3 -7.8 7.4 -6.5Z" fill="#343434"></path></g><g transform="translate(103 609)"><path d="M5.6 -5.8C6.9 -4.3 7.4 -2.2 7.2 -0.2C6.9 1.7 6 3.4 4.7 4.3C3.4 5.3 1.7 5.5 -0.2 5.6C-2.1 5.8 -4.1 6 -5.4 5.1C-6.7 4.1 -7.3 2.1 -7.4 -0.1C-7.5 -2.2 -7 -4.4 -5.7 -5.8C-4.4 -7.3 -2.2 -7.9 0 -7.9C2.2 -7.9 4.3 -7.2 5.6 -5.8Z" fill="#343434"></path></g><g transform="translate(31 342)"><path d="M6.3 -5.8C8.1 -4.6 9.2 -2.3 8.9 -0.4C8.5 1.6 6.6 3.2 4.9 5.1C3.2 6.9 1.6 9.1 -0.4 9.6C-2.5 10 -5 8.7 -6.9 6.8C-8.9 5 -10.3 2.5 -10.4 -0.1C-10.5 -2.7 -9.2 -5.3 -7.3 -6.5C-5.3 -7.7 -2.7 -7.4 -0.2 -7.2C2.3 -7 4.6 -7 6.3 -5.8Z" fill="#343434"></path></g><g transform="translate(65 625)"><path d="M5.1 -5.5C6.9 -3.4 8.8 -1.7 9 0.2C9.3 2.2 7.9 4.3 6.1 5.7C4.3 7.1 2.2 7.8 0 7.8C-2.1 7.7 -4.2 7 -6.3 5.6C-8.5 4.2 -10.8 2.1 -11.3 -0.5C-11.9 -3.2 -10.7 -6.4 -8.5 -8.5C-6.4 -10.6 -3.2 -11.7 -0.7 -11C1.7 -10.2 3.4 -7.6 5.1 -5.5Z" fill="#343434"></path></g><g transform="translate(174 705)"><path d="M7.3 -8.1C8.9 -5.7 9.1 -2.9 9.6 0.5C10.1 3.9 10.9 7.8 9.3 10.4C7.8 13 3.9 14.3 0.2 14C-3.4 13.8 -6.8 12 -9.1 9.4C-11.3 6.8 -12.5 3.4 -12.2 0.3C-11.9 -2.8 -10.1 -5.6 -7.9 -8C-5.6 -10.4 -2.8 -12.4 0 -12.4C2.9 -12.5 5.7 -10.5 7.3 -8.1Z" fill="#343434"></path></g><g transform="translate(122 511)"><path d="M4.7 -5.4C6.1 -3.3 7.3 -1.6 7.3 0C7.2 1.6 6 3.2 4.6 4.4C3.2 5.6 1.6 6.4 -0.6 7C-2.8 7.7 -5.7 8.1 -7.1 6.9C-8.6 5.7 -8.6 2.8 -8.7 -0.1C-8.8 -3 -8.9 -6 -7.5 -8.1C-6 -10.2 -3 -11.5 -0.7 -10.8C1.6 -10.1 3.3 -7.5 4.7 -5.4Z" fill="#343434"></path></g><g transform="translate(106 202)"><path d="M4.1 -4.2C4.8 -3.4 4.7 -1.7 4.6 0C4.6 1.6 4.7 3.2 4 4.2C3.2 5.2 1.6 5.6 0.3 5.3C-1 4.9 -1.9 3.9 -2.9 2.9C-4 1.9 -5.1 1 -5.5 -0.4C-5.9 -1.8 -5.6 -3.5 -4.6 -4.3C-3.5 -5.2 -1.8 -5.1 0 -5C1.7 -5 3.4 -5 4.1 -4.2Z" fill="#343434"></path></g><g transform="translate(147 5)"><path d="M7.7 -7.5C9.4 -6 9.9 -3 9.7 -0.2C9.4 2.5 8.4 5 6.7 7.5C5 10.1 2.5 12.7 -0.5 13.2C-3.5 13.7 -7 12.1 -9 9.5C-11.1 7 -11.6 3.5 -11.4 0.2C-11.2 -3.1 -10.2 -6.2 -8.2 -7.7C-6.2 -9.3 -3.1 -9.3 -0.1 -9.2C3 -9.2 6 -9.1 7.7 -7.5Z" fill="#343434"></path></g><g transform="translate(4 16)"><path d="M6.2 -6.3C7.9 -4.4 9.3 -2.2 9.6 0.4C10 2.9 9.4 5.8 7.6 7.7C5.8 9.6 2.9 10.5 -0.1 10.6C-3.1 10.6 -6.1 9.9 -8.1 8C-10 6.1 -10.8 3.1 -10.3 0.6C-9.7 -1.9 -7.8 -3.9 -5.8 -5.8C-3.9 -7.6 -1.9 -9.4 0.1 -9.5C2.2 -9.6 4.4 -8.1 6.2 -6.3Z" fill="#343434"></path></g><g transform="translate(31 85)"><path d="M5.1 -6.1C6.3 -3.9 6.7 -2 6.9 0.2C7.1 2.4 7.2 4.8 6 6.2C4.8 7.5 2.4 7.8 0.4 7.5C-1.7 7.1 -3.4 6.1 -4.9 4.8C-6.4 3.4 -7.7 1.7 -7.8 -0.1C-7.9 -1.9 -6.9 -3.9 -5.4 -6C-3.9 -8.2 -1.9 -10.5 0 -10.6C2 -10.6 3.9 -8.2 5.1 -6.1Z" fill="#343434"></path></g><g transform="translate(176 84)"><path d="M7.3 -7.3C9.3 -5.3 10.5 -2.7 10 -0.6C9.4 1.5 6.9 3 4.9 4.8C3 6.6 1.5 8.7 -0.6 9.3C-2.7 9.9 -5.4 9 -7 7.2C-8.6 5.4 -9.2 2.7 -8.8 0.4C-8.3 -1.8 -6.9 -3.6 -5.2 -5.6C-3.6 -7.5 -1.8 -9.6 0.4 -10.1C2.7 -10.5 5.3 -9.3 7.3 -7.3Z" fill="#343434"></path></g><g transform="translate(129 578)"><path d="M5.6 -6C7 -4.2 7.6 -2.1 7.3 -0.3C7.1 1.6 6 3.2 4.6 4.3C3.2 5.4 1.6 6 -0.3 6.3C-2.2 6.6 -4.4 6.6 -5.5 5.5C-6.7 4.4 -6.8 2.2 -7 -0.2C-7.2 -2.5 -7.3 -5 -6.2 -6.8C-5 -8.6 -2.5 -9.7 -0.2 -9.5C2.1 -9.3 4.2 -7.8 5.6 -6Z" fill="#343434"></path></g><g transform="translate(184 568)"><path d="M6.9 -7.4C8.3 -5.5 8.4 -2.7 8.1 -0.3C7.7 2.1 7 4.1 5.5 6.1C4.1 8.1 2.1 10.1 -0.2 10.2C-2.4 10.4 -4.8 8.8 -5.9 6.8C-7.1 4.8 -7.1 2.4 -7 0C-7 -2.3 -7 -4.7 -5.8 -6.6C-4.7 -8.6 -2.3 -10.1 0.2 -10.3C2.7 -10.5 5.5 -9.4 6.9 -7.4Z" fill="#343434"></path></g><g transform="translate(60 540)"><path d="M5.3 -5.3C6.7 -3.8 7.8 -1.9 8 0.2C8.2 2.3 7.6 4.7 6.2 6.7C4.7 8.6 2.3 10.2 0.4 9.8C-1.6 9.4 -3.2 7.1 -5.1 5.1C-7 3.2 -9.2 1.6 -9.7 -0.5C-10.2 -2.6 -9 -5.2 -7.1 -6.7C-5.2 -8.2 -2.6 -8.6 -0.3 -8.2C1.9 -7.9 3.8 -6.8 5.3 -5.3Z" fill="#343434"></path></g><g transform="translate(84 267)"><path d="M6.6 -6.6C7.9 -5.2 7.9 -2.6 7.7 -0.2C7.5 2.2 7 4.4 5.7 6C4.4 7.6 2.2 8.5 -0.2 8.7C-2.5 8.9 -5.1 8.2 -6.4 6.6C-7.7 5.1 -7.8 2.5 -7.6 0.2C-7.4 -2.1 -6.8 -4.1 -5.5 -5.5C-4.1 -6.9 -2.1 -7.5 0.3 -7.8C2.6 -8.1 5.2 -8 6.6 -6.6Z" fill="#343434"></path></g><g transform="translate(69 346)"><path d="M3.8 -3.6C5 -2.6 5.9 -1.3 5.7 -0.2C5.5 0.9 4.1 1.7 2.9 2.7C1.7 3.6 0.9 4.5 -0.2 4.7C-1.3 4.9 -2.5 4.3 -3.2 3.4C-3.9 2.5 -4 1.3 -3.8 0.2C-3.6 -0.9 -3.2 -1.8 -2.5 -2.7C-1.8 -3.7 -0.9 -4.6 0.2 -4.8C1.3 -5 2.6 -4.5 3.8 -3.6Z" fill="#343434"></path></g><g transform="translate(94 147)"><path d="M7.9 -7.8C10.6 -5.1 13.6 -2.5 14.1 0.5C14.6 3.5 12.6 7.1 9.8 9.7C7.1 12.4 3.5 14.1 -0.2 14.3C-3.9 14.5 -7.8 13.1 -9.6 10.4C-11.4 7.8 -11.2 3.9 -10.8 0.4C-10.4 -3.1 -9.9 -6.3 -8.1 -9C-6.3 -11.7 -3.1 -14 -0.3 -13.7C2.5 -13.4 5.1 -10.5 7.9 -7.8Z" fill="#343434"></path></g><g transform="translate(186 2)"><path d="M5.6 -5.8C6.7 -4.5 6.7 -2.3 6.4 -0.3C6.1 1.7 5.5 3.3 4.4 4.4C3.3 5.4 1.7 5.9 0.1 5.8C-1.4 5.7 -2.8 5 -4.2 3.9C-5.6 2.8 -7 1.4 -7.1 -0.1C-7.2 -1.6 -5.9 -3.2 -4.5 -4.4C-3.2 -5.7 -1.6 -6.7 0.3 -7C2.3 -7.4 4.5 -7.1 5.6 -5.8Z" fill="#343434"></path></g><g transform="translate(113 297)"><path d="M5.7 -6.3C7 -4.3 7.6 -2.2 7.4 -0.2C7.2 1.8 6.3 3.5 4.9 4.7C3.5 6 1.8 6.6 -0.7 7.3C-3.2 8.1 -6.4 8.9 -7.8 7.6C-9.1 6.4 -8.6 3.2 -8 0.7C-7.3 -1.9 -6.5 -3.8 -5.1 -5.8C-3.8 -7.8 -1.9 -9.9 0.1 -10C2.2 -10.1 4.3 -8.3 5.7 -6.3Z" fill="#343434"></path></g><g transform="translate(111 716)"><path d="M9.8 -9.3C12.4 -7.2 13.9 -3.6 13.9 0C14 3.7 12.5 7.3 9.9 9.4C7.3 11.5 3.7 12 0.5 11.5C-2.7 11 -5.4 9.6 -7.6 7.5C-9.7 5.4 -11.2 2.7 -11.3 -0.1C-11.3 -2.9 -10 -5.8 -7.9 -7.9C-5.8 -10 -2.9 -11.3 0.4 -11.7C3.6 -12.1 7.2 -11.4 9.8 -9.3Z" fill="#343434"></path></g></g></svg>