<svg id="visual" viewBox="0 0 50 720" width="40" height="720" xmlns="http://www.w3.org/2000/svg" xmlns:xlink="http://www.w3.org/1999/xlink" version="1.1"><g><g transform="translate(40 689)"><path d="M4.5 -4.3C5.6 -3.4 6.2 -1.7 6.2 0C6.2 1.7 5.7 3.4 4.5 5C3.4 6.5 1.7 8 0.2 7.7C-1.3 7.5 -2.5 5.6 -3.8 4.1C-5.1 2.5 -6.5 1.3 -6.6 -0.1C-6.7 -1.4 -5.5 -2.9 -4.2 -3.8C-2.9 -4.7 -1.4 -5 0.1 -5.1C1.7 -5.3 3.4 -5.2 4.5 -4.3Z" fill="#343434"></path></g><g transform="translate(22 426)"><path d="M2.7 -2.7C3.6 -1.9 4.4 -0.9 4.4 0C4.4 0.9 3.5 1.8 2.7 2.7C1.8 3.5 0.9 4.3 -0.4 4.7C-1.6 5 -3.3 5 -4.4 4.1C-5.5 3.3 -6.2 1.6 -5.8 0.3C-5.5 -1 -4.2 -2 -3.1 -2.8C-2 -3.7 -1 -4.4 0 -4.4C0.9 -4.3 1.9 -3.6 2.7 -2.7Z" fill="#343434"></path></g><g transform="translate(35 189)"><path d="M4 -4.1C4.8 -3.1 5 -1.5 4.8 -0.2C4.6 1.2 4.1 2.4 3.2 3.4C2.4 4.5 1.2 5.4 0 5.4C-1.2 5.5 -2.4 4.6 -3.2 3.5C-4 2.4 -4.3 1.2 -4.2 0.1C-4.1 -1 -3.5 -2 -2.7 -3C-2 -4.1 -1 -5.2 0.3 -5.5C1.5 -5.7 3.1 -5.2 4 -4.1Z" fill="#343434"></path></g><g transform="translate(15 276)"><path d="M3.3 -3.2C4.1 -2.5 4.5 -1.2 4.5 0C4.6 1.3 4.2 2.6 3.4 3.6C2.6 4.7 1.3 5.5 0 5.5C-1.3 5.5 -2.7 4.7 -3.4 3.7C-4.2 2.7 -4.4 1.3 -4.5 -0.1C-4.6 -1.6 -4.6 -3.1 -3.9 -3.8C-3.1 -4.6 -1.6 -4.5 -0.2 -4.4C1.2 -4.2 2.5 -4 3.3 -3.2Z" fill="#343434"></path></g><g transform="translate(13 591)"><path d="M2.8 -2.8C3.6 -2.1 4 -1 4.2 0.2C4.3 1.4 4.3 2.8 3.5 3.9C2.8 5.1 1.4 5.9 -0.1 6C-1.5 6.1 -3.1 5.3 -3.7 4.2C-4.4 3.1 -4.2 1.5 -4.2 0C-4.3 -1.6 -4.5 -3.2 -3.9 -4C-3.2 -4.7 -1.6 -4.6 -0.3 -4.3C1 -4 2.1 -3.6 2.8 -2.8Z" fill="#343434"></path></g><g transform="translate(34 221)"><path d="M4.2 -3.9C5.3 -3.2 5.7 -1.6 5.5 -0.2C5.2 1.2 4.4 2.4 3.4 3.1C2.4 3.8 1.2 4 0.2 3.9C-0.9 3.7 -1.8 3.2 -2.5 2.5C-3.2 1.8 -3.8 0.9 -3.9 -0.1C-4 -1.1 -3.7 -2.2 -3 -2.9C-2.2 -3.5 -1.1 -3.7 0.2 -3.9C1.6 -4.2 3.2 -4.5 4.2 -3.9Z" fill="#343434"></path></g><g transform="translate(15 638)"><path d="M1.3 -1.4C1.6 -1 1.6 -0.5 1.7 0.1C1.7 0.6 1.8 1.3 1.5 1.5C1.3 1.8 0.6 1.7 0.1 1.6C-0.4 1.4 -0.7 1.3 -1.2 1C-1.6 0.7 -2.1 0.4 -2.2 -0.1C-2.4 -0.6 -2.2 -1.3 -1.7 -1.6C-1.3 -2 -0.6 -2.1 -0.1 -2C0.5 -1.9 1 -1.8 1.3 -1.4Z" fill="#343434"></path></g><g transform="translate(6 15)"><path d="M3.6 -3.8C4.3 -2.8 4.4 -1.4 4.6 0.2C4.7 1.8 5.1 3.6 4.3 4.6C3.6 5.6 1.8 5.9 0 5.9C-1.8 6 -3.7 5.7 -4.5 4.7C-5.3 3.7 -5.2 1.8 -4.9 0.3C-4.6 -1.2 -4.1 -2.4 -3.3 -3.4C-2.4 -4.4 -1.2 -5.2 0.1 -5.3C1.4 -5.4 2.8 -4.8 3.6 -3.8Z" fill="#343434"></path></g><g transform="translate(4 137)"><path d="M1.1 -1.1C1.4 -0.8 1.5 -0.4 1.5 0C1.5 0.4 1.4 0.9 1.1 1.3C0.9 1.7 0.4 2.1 0 2.1C-0.5 2.1 -0.9 1.7 -1.2 1.3C-1.5 0.9 -1.6 0.5 -1.6 0C-1.6 -0.4 -1.4 -0.9 -1.2 -1.2C-0.9 -1.4 -0.4 -1.6 0 -1.6C0.4 -1.5 0.8 -1.4 1.1 -1.1Z" fill="#343434"></path></g><g transform="translate(6 409)"><path d="M2.2 -2.3C2.6 -1.8 2.5 -0.9 2.5 0C2.4 0.9 2.6 1.8 2.2 2.4C1.8 3.1 0.9 3.5 0.1 3.4C-0.7 3.3 -1.4 2.7 -1.8 2C-2.1 1.4 -2.2 0.7 -2.1 0.1C-2.1 -0.6 -1.9 -1.2 -1.5 -1.6C-1.2 -2 -0.6 -2.2 0.2 -2.4C0.9 -2.6 1.8 -2.7 2.2 -2.3Z" fill="#343434"></path></g><g transform="translate(5 511)"><path d="M1.5 -1.5C1.8 -1.2 1.9 -0.6 1.9 -0.1C1.8 0.4 1.6 0.9 1.2 1.4C0.9 1.9 0.4 2.4 -0.1 2.5C-0.7 2.6 -1.4 2.3 -1.6 1.8C-1.9 1.4 -1.8 0.7 -1.7 0.1C-1.6 -0.4 -1.5 -0.9 -1.2 -1.2C-0.9 -1.6 -0.4 -1.8 0.1 -1.9C0.6 -1.9 1.2 -1.8 1.5 -1.5Z" fill="#343434"></path></g><g transform="translate(39 487)"><path d="M3.4 -3.4C4.3 -2.5 4.9 -1.3 4.9 0C4.9 1.2 4.3 2.5 3.4 3.2C2.5 3.9 1.2 4.1 0.1 4C-1 3.9 -2 3.4 -2.5 2.7C-3.1 2 -3.1 1 -3.1 0.1C-3 -0.9 -2.9 -1.8 -2.3 -2.6C-1.8 -3.5 -0.9 -4.3 0.2 -4.5C1.3 -4.7 2.5 -4.3 3.4 -3.4Z" fill="#343434"></path></g><g transform="translate(7 671)"><path d="M1.7 -1.7C2.1 -1.4 2.1 -0.7 2.1 -0.1C2 0.6 1.9 1.1 1.5 1.4C1.1 1.7 0.6 1.7 0.1 1.7C-0.4 1.6 -0.7 1.3 -1 1C-1.3 0.7 -1.6 0.4 -1.7 -0.2C-1.9 -0.7 -2 -1.4 -1.7 -1.7C-1.4 -2 -0.7 -1.9 0 -1.9C0.7 -1.9 1.4 -2 1.7 -1.7Z" fill="#343434"></path></g><g transform="translate(49 504)"><path d="M1.9 -2C2.6 -1.3 3.2 -0.6 3.2 0C3.2 0.6 2.5 1.2 1.9 1.8C1.2 2.3 0.6 2.7 0 2.7C-0.6 2.7 -1.2 2.3 -2.1 1.8C-2.9 1.2 -3.9 0.6 -3.9 0C-3.9 -0.7 -3 -1.3 -2.2 -2C-1.3 -2.7 -0.7 -3.4 0 -3.3C0.6 -3.3 1.3 -2.6 1.9 -2Z" fill="#343434"></path></g><g transform="translate(8 311)"><path d="M3.4 -3.2C4.1 -2.6 4.4 -1.3 4.2 -0.2C4 0.9 3.4 1.9 2.7 2.7C1.9 3.5 0.9 4.1 -0.2 4.3C-1.3 4.4 -2.5 4.1 -3.4 3.3C-4.2 2.5 -4.7 1.3 -4.4 0.3C-4.2 -0.7 -3.2 -1.4 -2.3 -2C-1.4 -2.6 -0.7 -3 0.3 -3.3C1.3 -3.5 2.6 -3.7 3.4 -3.2Z" fill="#343434"></path></g><g transform="translate(45 452)"><path d="M2.9 -2.6C3.7 -2.1 4.2 -1 4.1 -0.1C4 0.8 3.3 1.7 2.5 2.4C1.7 3.1 0.8 3.6 0.1 3.6C-0.7 3.5 -1.5 2.9 -2.2 2.2C-2.9 1.5 -3.6 0.7 -3.8 -0.2C-4 -1.1 -3.7 -2.3 -3 -2.8C-2.3 -3.3 -1.1 -3.1 0 -3.1C1 -3 2.1 -3.1 2.9 -2.6Z" fill="#343434"></path></g><g transform="translate(46 170)"><path d="M2.6 -2.8C3.6 -1.7 4.6 -0.9 4.9 0.4C5.3 1.6 5 3.2 4.1 3.8C3.2 4.5 1.6 4.2 0.3 4C-1 3.7 -2.1 3.4 -3 2.7C-3.8 2.1 -4.6 1 -4.8 -0.2C-5.1 -1.5 -4.8 -3 -3.9 -4.1C-3 -5.2 -1.5 -5.9 -0.3 -5.5C0.9 -5.2 1.7 -3.9 2.6 -2.8Z" fill="#343434"></path></g><g transform="translate(49 380)"><path d="M1.9 -2.1C2.2 -1.5 2.1 -0.8 2.1 0C2.1 0.7 2.2 1.5 1.8 2.1C1.5 2.7 0.7 3.2 -0.1 3.3C-0.9 3.4 -1.8 3 -2.4 2.4C-3 1.8 -3.3 0.9 -3.3 0.1C-3.2 -0.8 -2.7 -1.5 -2.1 -2.1C-1.5 -2.7 -0.8 -3.1 0 -3.1C0.8 -3.1 1.5 -2.7 1.9 -2.1Z" fill="#343434"></path></g><g transform="translate(37 709)"><path d="M1.6 -1.6C2.1 -1.2 2.5 -0.6 2.6 0.1C2.6 0.7 2.4 1.4 1.9 1.9C1.4 2.4 0.7 2.6 0.1 2.5C-0.6 2.5 -1.2 2.2 -1.6 1.7C-2 1.2 -2.2 0.6 -2.3 -0.1C-2.4 -0.8 -2.4 -1.6 -2 -2C-1.6 -2.4 -0.8 -2.4 -0.1 -2.3C0.6 -2.2 1.2 -2 1.6 -1.6Z" fill="#343434"></path></g><g transform="translate(38 525)"><path d="M3.7 -3.6C4.4 -3 4.3 -1.5 4.2 -0.1C4 1.2 3.9 2.5 3.2 3.1C2.5 3.7 1.2 3.7 0.1 3.6C-1 3.5 -2.1 3.3 -3 2.7C-4 2.1 -4.9 1 -4.8 0C-4.8 -1 -3.9 -1.9 -2.9 -2.6C-1.9 -3.3 -1 -3.6 0.3 -3.9C1.5 -4.1 3 -4.3 3.7 -3.6Z" fill="#343434"></path></g><g transform="translate(6 346)"><path d="M1.6 -1.4C2.3 -1 3.1 -0.5 3.2 0.2C3.4 0.9 3 1.7 2.4 2.1C1.7 2.5 0.9 2.4 0.1 2.3C-0.6 2.2 -1.2 2 -1.6 1.6C-2 1.2 -2.2 0.6 -2.2 0C-2.2 -0.6 -2 -1.2 -1.6 -1.6C-1.2 -2 -0.6 -2.1 -0.1 -2C0.5 -2 1 -1.7 1.6 -1.4Z" fill="#343434"></path></g><g transform="translate(18 74)"><path d="M4.1 -3.9C5.1 -3.1 5.4 -1.6 5.6 0.1C5.7 1.9 5.6 3.7 4.7 4.6C3.7 5.6 1.9 5.6 0.1 5.6C-1.8 5.5 -3.5 5.4 -4.6 4.4C-5.6 3.5 -5.9 1.8 -5.6 0.3C-5.3 -1.1 -4.4 -2.3 -3.3 -3C-2.3 -3.7 -1.1 -4.1 0.2 -4.3C1.6 -4.5 3.1 -4.6 4.1 -3.9Z" fill="#343434"></path></g><g transform="translate(23 105)"><path d="M2.2 -2.2C2.6 -1.7 2.6 -0.9 2.6 -0.1C2.5 0.7 2.3 1.4 1.9 1.9C1.4 2.4 0.7 2.7 0.1 2.6C-0.6 2.5 -1.1 2.1 -1.7 1.6C-2.3 1.1 -2.9 0.6 -2.8 0C-2.8 -0.5 -2.2 -1 -1.6 -1.5C-1 -1.9 -0.5 -2.3 0.2 -2.5C0.9 -2.7 1.7 -2.6 2.2 -2.2Z" fill="#343434"></path></g><g transform="translate(34 346)"><path d="M4.3 -4.6C5.3 -3.4 5.5 -1.7 5.6 0.1C5.7 1.9 5.7 3.8 4.7 4.8C3.8 5.8 1.9 5.9 0.4 5.5C-1.1 5.1 -2.2 4.2 -3.2 3.2C-4.3 2.2 -5.4 1.1 -5.7 -0.3C-6 -1.8 -5.7 -3.5 -4.6 -4.7C-3.5 -5.9 -1.8 -6.4 0 -6.4C1.7 -6.4 3.4 -5.7 4.3 -4.6Z" fill="#343434"></path></g><g transform="translate(25 617)"><path d="M3.6 -4C4.4 -2.7 4.7 -1.4 4.6 -0.2C4.4 1.1 3.8 2.1 2.9 2.9C2.1 3.6 1.1 4 -0.4 4.4C-1.8 4.8 -3.7 5.2 -4.7 4.4C-5.7 3.7 -6 1.8 -5.7 0.3C-5.4 -1.3 -4.6 -2.6 -3.6 -3.8C-2.6 -5.1 -1.3 -6.4 0 -6.5C1.4 -6.5 2.7 -5.3 3.6 -4Z" fill="#343434"></path></g><g transform="translate(13 485)"><path d="M2.3 -2.3C2.7 -1.9 2.5 -0.9 2.3 -0.2C2.1 0.6 1.9 1.2 1.6 1.8C1.2 2.4 0.6 3.2 -0.1 3.2C-0.7 3.3 -1.5 2.8 -2.1 2.1C-2.6 1.5 -3 0.7 -3 0C-3 -0.7 -2.6 -1.5 -2.1 -1.9C-1.5 -2.3 -0.7 -2.3 0.1 -2.4C0.9 -2.5 1.9 -2.7 2.3 -2.3Z" fill="#343434"></path></g><g transform="translate(6 92)"><path d="M3.1 -3.3C3.6 -2.5 3.6 -1.2 3.4 -0.2C3.2 0.9 3 1.8 2.4 2.8C1.8 3.7 0.9 4.7 -0.1 4.8C-1.1 4.9 -2.3 4.2 -2.9 3.2C-3.5 2.3 -3.5 1.1 -3.5 0C-3.5 -1.1 -3.3 -2.1 -2.7 -2.9C-2.1 -3.7 -1.1 -4.2 0.1 -4.3C1.2 -4.4 2.5 -4 3.1 -3.3Z" fill="#343434"></path></g><g transform="translate(12 241)"><path d="M2.6 -2.5C3.3 -1.9 3.7 -0.9 3.6 0C3.6 0.9 3.1 1.7 2.4 2.3C1.7 2.9 0.9 3.2 -0.1 3.3C-1.1 3.4 -2.2 3.3 -3 2.8C-3.8 2.2 -4.2 1.1 -4.1 0.1C-4 -0.9 -3.3 -1.7 -2.5 -2.4C-1.7 -3 -0.9 -3.4 0 -3.4C0.9 -3.5 1.9 -3.2 2.6 -2.5Z" fill="#343434"></path></g><g transform="translate(41 126)"><path d="M1.6 -1.7C1.9 -1.4 1.8 -0.7 1.7 -0.1C1.6 0.5 1.5 0.9 1.2 1.4C0.9 1.8 0.5 2.3 0 2.3C-0.5 2.4 -1 2 -1.4 1.5C-1.7 1 -1.7 0.5 -1.8 0C-1.8 -0.6 -1.7 -1.1 -1.4 -1.5C-1.1 -1.9 -0.6 -2.1 0.1 -2.2C0.7 -2.3 1.4 -2.1 1.6 -1.7Z" fill="#343434"></path></g><g transform="translate(45 551)"><path d="M2.2 -2.5C2.9 -1.5 3.5 -0.8 3.7 0.2C3.9 1.2 3.7 2.4 3 2.9C2.4 3.5 1.2 3.6 -0.1 3.6C-1.3 3.7 -2.6 3.8 -3.3 3.2C-3.9 2.6 -3.8 1.3 -3.6 0.2C-3.4 -0.9 -3 -1.7 -2.4 -2.7C-1.7 -3.6 -0.9 -4.7 0 -4.6C0.8 -4.6 1.5 -3.4 2.2 -2.5Z" fill="#343434"></path></g><g transform="translate(33 324)"><path d="M2.3 -2.6C2.9 -1.8 3.1 -0.9 3 -0.1C2.9 0.7 2.5 1.4 1.9 1.9C1.4 2.4 0.7 2.7 -0.2 2.8C-1 3 -2 3 -2.7 2.5C-3.4 2 -3.7 1 -3.7 0C-3.7 -1 -3.3 -1.9 -2.6 -2.7C-1.9 -3.6 -1 -4.2 0 -4.2C0.9 -4.2 1.8 -3.4 2.3 -2.6Z" fill="#343434"></path></g><g transform="translate(44 572)"><path d="M1.9 -2C2.4 -1.5 2.5 -0.7 2.6 0.1C2.6 0.9 2.6 1.8 2.2 2.3C1.8 2.9 0.9 3.1 0 3.1C-0.9 3.1 -1.8 2.9 -2.6 2.4C-3.4 1.8 -4.1 0.9 -3.9 0.1C-3.8 -0.6 -2.8 -1.2 -2 -1.8C-1.2 -2.3 -0.6 -2.7 0.1 -2.8C0.7 -2.8 1.5 -2.5 1.9 -2Z" fill="#343434"></path></g><g transform="translate(47 613)"><path d="M3.5 -3.8C4.2 -2.8 4.1 -1.4 4.3 0.2C4.6 1.9 5.1 3.7 4.4 4.6C3.7 5.6 1.9 5.5 0.3 5.2C-1.2 4.8 -2.3 4.2 -3.6 3.3C-4.9 2.3 -6.3 1.2 -6.7 -0.3C-7 -1.8 -6.2 -3.6 -4.9 -4.7C-3.6 -5.7 -1.8 -5.9 -0.2 -5.7C1.4 -5.5 2.8 -4.8 3.5 -3.8Z" fill="#343434"></path></g><g transform="translate(10 384)"><path d="M1.2 -1.1C1.6 -0.7 2.1 -0.4 2.2 0.2C2.4 0.7 2.2 1.4 1.8 1.8C1.4 2.3 0.7 2.5 0 2.5C-0.6 2.4 -1.2 2.2 -1.7 1.7C-2.1 1.2 -2.3 0.6 -2.3 0.1C-2.2 -0.5 -1.8 -0.9 -1.4 -1.3C-0.9 -1.7 -0.5 -2 0 -1.9C0.4 -1.9 0.7 -1.5 1.2 -1.1Z" fill="#343434"></path></g><g transform="translate(22 164)"><path d="M2.2 -2.2C2.6 -1.8 2.6 -0.9 2.7 0.1C2.8 1.1 3 2.1 2.5 2.6C2.1 3.2 1.1 3.2 0.1 3C-0.8 2.9 -1.6 2.6 -2.2 2.1C-2.8 1.6 -3.3 0.8 -3.4 -0.2C-3.6 -1.2 -3.6 -2.3 -2.9 -2.8C-2.3 -3.2 -1.2 -2.9 -0.1 -2.8C0.9 -2.7 1.8 -2.7 2.2 -2.2Z" fill="#343434"></path></g><g transform="translate(30 406)"><path d="M3.9 -4.5C4.7 -3.2 4.6 -1.6 4.5 -0.1C4.3 1.3 4.1 2.6 3.4 3.4C2.6 4.1 1.3 4.3 0 4.3C-1.2 4.2 -2.5 4 -3.3 3.2C-4.1 2.5 -4.5 1.2 -4.6 -0.1C-4.7 -1.4 -4.4 -2.8 -3.6 -4.1C-2.8 -5.4 -1.4 -6.6 0.1 -6.7C1.6 -6.8 3.2 -5.8 3.9 -4.5Z" fill="#343434"></path></g><g transform="translate(2 700)"><path d="M3.2 -2.9C4.3 -2 5.6 -1 5.6 0.1C5.7 1.1 4.5 2.2 3.4 2.9C2.2 3.6 1.1 3.8 0 3.8C-1.1 3.7 -2.2 3.5 -2.8 2.8C-3.4 2.2 -3.6 1.1 -3.6 0C-3.6 -1 -3.3 -2.1 -2.7 -3C-2.1 -3.8 -1 -4.5 0 -4.5C1 -4.5 2 -3.8 3.2 -2.9Z" fill="#343434"></path></g><g transform="translate(8 533)"><path d="M3.5 -3.8C4.5 -2.5 5.2 -1.3 5.1 0C5.1 1.2 4.3 2.4 3.3 3.5C2.4 4.6 1.2 5.7 -0.3 6C-1.7 6.2 -3.4 5.6 -4.5 4.5C-5.7 3.4 -6.3 1.7 -6.4 0C-6.4 -1.7 -5.8 -3.4 -4.6 -4.7C-3.4 -5.9 -1.7 -6.8 -0.2 -6.5C1.3 -6.3 2.5 -5.1 3.5 -3.8Z" fill="#343434"></path></g><g transform="translate(9 39)"><path d="M3.8 -3.7C4.8 -2.8 5.3 -1.4 5.2 -0.2C5 1 4 2.1 3 3.1C2.1 4.1 1 5.2 -0.1 5.3C-1.3 5.5 -2.6 4.7 -3.4 3.7C-4.1 2.6 -4.3 1.3 -4.2 0.2C-4 -1 -3.5 -2 -2.8 -3C-2 -3.9 -1 -4.7 0.2 -4.9C1.4 -5.1 2.8 -4.6 3.8 -3.7Z" fill="#343434"></path></g><g transform="translate(44 91)"><path d="M3.6 -3.9C4.6 -2.6 5.3 -1.3 5.3 0C5.3 1.3 4.6 2.6 3.6 3.5C2.6 4.5 1.3 5 0 5C-1.3 4.9 -2.5 4.3 -3.3 3.4C-4.2 2.5 -4.6 1.3 -4.7 -0.1C-4.8 -1.4 -4.5 -2.8 -3.7 -4.1C-2.8 -5.4 -1.4 -6.6 -0.1 -6.5C1.3 -6.5 2.6 -5.2 3.6 -3.9Z" fill="#343434"></path></g><g transform="translate(39 8)"><path d="M1.7 -1.8C2 -1.4 1.9 -0.7 1.9 0C1.9 0.7 2 1.4 1.7 1.7C1.4 2.1 0.7 2 0.1 2C-0.6 1.9 -1.1 1.8 -1.5 1.5C-1.9 1.1 -2.1 0.6 -2 0.1C-1.9 -0.4 -1.6 -0.8 -1.2 -1.2C-0.8 -1.6 -0.4 -1.9 0.1 -2C0.7 -2.2 1.4 -2.1 1.7 -1.8Z" fill="#343434"></path></g><g transform="translate(14 555)"><path d="M4.5 -4.5C5.3 -3.7 5 -1.8 4.7 -0.3C4.4 1.2 4 2.4 3.2 3.1C2.4 3.8 1.2 4 0 3.9C-1.2 3.9 -2.4 3.7 -3.1 3C-3.8 2.4 -4 1.2 -4.1 0C-4.1 -1.3 -4 -2.6 -3.3 -3.4C-2.6 -4.2 -1.3 -4.5 0.3 -4.8C1.8 -5.1 3.7 -5.3 4.5 -4.5Z" fill="#343434"></path></g><g transform="translate(5 175)"><path d="M1.4 -1.3C1.8 -0.9 2.2 -0.5 2.1 0C2.1 0.4 1.6 0.8 1.2 1.3C0.8 1.8 0.4 2.4 -0.1 2.5C-0.7 2.7 -1.4 2.4 -1.8 1.9C-2.2 1.4 -2.3 0.7 -2.1 0.1C-2 -0.4 -1.7 -0.9 -1.3 -1.2C-0.9 -1.6 -0.4 -1.9 0 -1.9C0.5 -2 0.9 -1.7 1.4 -1.3Z" fill="#343434"></path></g><g transform="translate(26 468)"><path d="M4.5 -4.4C5.3 -3.6 5.2 -1.8 5 -0.2C4.8 1.4 4.5 2.8 3.6 3.5C2.8 4.1 1.4 4.1 -0.2 4.3C-1.8 4.5 -3.7 5 -4.6 4.4C-5.6 3.7 -5.7 1.8 -5.3 0.4C-4.8 -1 -3.9 -2 -3 -2.8C-2 -3.5 -1 -4 0.4 -4.4C1.8 -4.8 3.6 -5.1 4.5 -4.4Z" fill="#343434"></path></g><g transform="translate(33 257)"><path d="M1.4 -1.6C1.8 -1.1 2 -0.5 1.9 0C1.9 0.5 1.7 1 1.3 1.5C1 2.1 0.5 2.7 0 2.7C-0.6 2.8 -1.2 2.3 -1.6 1.7C-2.1 1.2 -2.4 0.6 -2.4 -0.1C-2.5 -0.7 -2.3 -1.4 -1.8 -1.9C-1.4 -2.5 -0.7 -2.8 -0.1 -2.7C0.5 -2.7 1.1 -2.2 1.4 -1.6Z" fill="#343434"></path></g><g transform="translate(48 642)"><path d="M2 -2.2C2.6 -1.4 3 -0.7 3.3 0.2C3.5 1.2 3.6 2.4 3 3.2C2.4 3.9 1.2 4.3 0 4.3C-1.2 4.2 -2.3 3.9 -3.1 3.1C-3.8 2.3 -4.1 1.2 -4.2 -0.1C-4.3 -1.4 -4.3 -2.8 -3.5 -3.6C-2.8 -4.4 -1.4 -4.6 -0.3 -4.2C0.7 -3.9 1.4 -3 2 -2.2Z" fill="#343434"></path></g><g transform="translate(26 27)"><path d="M3.2 -3.1C4 -2.4 4.4 -1.2 4.7 0.3C5 1.8 5.1 3.5 4.3 4.5C3.5 5.5 1.8 5.7 0 5.7C-1.7 5.6 -3.4 5.4 -4.7 4.4C-6 3.4 -6.9 1.7 -6.9 0C-6.8 -1.6 -5.8 -3.2 -4.5 -3.9C-3.2 -4.6 -1.6 -4.3 -0.2 -4.1C1.2 -3.9 2.4 -3.8 3.2 -3.1Z" fill="#343434"></path></g><g transform="translate(16 197)"><path d="M3.4 -3.4C4.5 -2.3 5.5 -1.1 5.4 -0.1C5.3 0.9 4 1.8 2.9 2.8C1.8 3.8 0.9 4.8 0 4.7C-0.9 4.7 -1.7 3.7 -2.6 2.7C-3.5 1.7 -4.4 0.9 -4.7 -0.3C-5 -1.5 -4.8 -3.1 -4 -4.2C-3.1 -5.3 -1.5 -6 -0.2 -5.8C1.1 -5.6 2.3 -4.5 3.4 -3.4Z" fill="#343434"></path></g><g transform="translate(18 449)"><path d="M2.1 -2.1C2.5 -1.7 2.5 -0.8 2.5 -0.1C2.4 0.7 2.3 1.4 1.8 1.8C1.4 2.3 0.7 2.4 0 2.4C-0.7 2.4 -1.4 2.2 -1.8 1.8C-2.2 1.4 -2.4 0.7 -2.5 -0.1C-2.5 -0.9 -2.6 -1.8 -2.2 -2.2C-1.8 -2.7 -0.9 -2.7 0 -2.7C0.8 -2.6 1.7 -2.6 2.1 -2.1Z" fill="#343434"></path></g><g transform="translate(23 55)"><path d="M1.3 -1.3C1.6 -1 1.7 -0.5 1.7 0C1.7 0.6 1.7 1.2 1.4 1.6C1.2 2 0.6 2.3 0 2.3C-0.5 2.3 -1.1 2 -1.5 1.5C-2 1.1 -2.3 0.5 -2.3 0C-2.3 -0.6 -2.1 -1.2 -1.7 -1.5C-1.2 -1.8 -0.6 -1.9 0 -1.8C0.5 -1.8 1 -1.7 1.3 -1.3Z" fill="#343434"></path></g><g transform="translate(42 50)"><path d="M4.1 -4.6C4.9 -3.4 4.8 -1.7 4.5 -0.3C4.1 1.1 3.7 2.1 2.9 2.8C2.1 3.6 1.1 3.9 -0.1 4.1C-1.3 4.2 -2.6 4.1 -3.5 3.4C-4.4 2.6 -4.8 1.3 -5.1 -0.2C-5.3 -1.8 -5.3 -3.6 -4.5 -4.8C-3.6 -6 -1.8 -6.5 -0.1 -6.5C1.7 -6.4 3.4 -5.8 4.1 -4.6Z" fill="#343434"></path></g><g transform="translate(48 289)"><path d="M3.4 -3.6C4.1 -2.7 4.3 -1.3 4 -0.3C3.8 0.8 3.1 1.7 2.4 2.4C1.7 3.1 0.8 3.6 0 3.6C-0.8 3.6 -1.7 3 -2.5 2.4C-3.4 1.7 -4.4 0.8 -4.6 -0.2C-4.8 -1.3 -4.3 -2.5 -3.4 -3.4C-2.5 -4.3 -1.3 -4.8 0 -4.9C1.3 -4.9 2.7 -4.5 3.4 -3.6Z" fill="#343434"></path></g><g transform="translate(36 666)"><path d="M3.5 -3.2C4.5 -2.4 5.3 -1.2 5.4 0.1C5.6 1.5 5 3 4 3.6C3 4.3 1.5 4.1 0 4.1C-1.4 4 -2.9 4.2 -3.7 3.5C-4.6 2.9 -4.9 1.4 -4.7 0.1C-4.6 -1.2 -4.1 -2.4 -3.2 -3.1C-2.4 -3.8 -1.2 -4 0 -4C1.2 -4.1 2.4 -3.9 3.5 -3.2Z" fill="#343434"></path></g><g transform="translate(43 431)"><path d="M2.3 -2.5C3 -1.7 3.5 -0.8 3.7 0.2C3.9 1.2 3.7 2.4 3.1 3.2C2.4 4 1.2 4.5 0 4.5C-1.1 4.4 -2.2 3.9 -3.1 3.1C-4 2.2 -4.7 1.1 -4.5 0.2C-4.3 -0.8 -3.3 -1.6 -2.4 -2.4C-1.6 -3.3 -0.8 -4.3 0 -4.4C0.8 -4.4 1.7 -3.4 2.3 -2.5Z" fill="#343434"></path></g><g transform="translate(2 607)"><path d="M1.6 -1.5C2 -1.2 2.3 -0.6 2.2 -0.1C2.1 0.5 1.8 0.9 1.3 1.3C0.9 1.8 0.5 2.2 -0.1 2.3C-0.6 2.4 -1.3 2.1 -1.6 1.7C-1.9 1.3 -1.9 0.6 -1.8 0.1C-1.7 -0.4 -1.5 -0.9 -1.2 -1.2C-0.9 -1.6 -0.4 -1.9 0.1 -1.9C0.6 -2 1.2 -1.9 1.6 -1.5Z" fill="#343434"></path></g><g transform="translate(29 365)"><path d="M1.9 -1.7C2.3 -1.4 2.6 -0.7 2.6 0C2.6 0.7 2.3 1.4 1.8 1.7C1.4 2.1 0.7 2.1 0.1 2C-0.5 1.8 -0.9 1.6 -1.2 1.3C-1.5 0.9 -1.7 0.5 -1.8 -0.1C-1.9 -0.6 -1.9 -1.3 -1.6 -1.6C-1.3 -2 -0.6 -2 0 -2.1C0.7 -2.1 1.4 -2.1 1.9 -1.7Z" fill="#343434"></path></g><g transform="translate(13 221)"><path d="M2.6 -2.9C3.2 -2.1 3.2 -1.1 3.1 -0.1C3 0.8 2.7 1.7 2.2 2.3C1.7 2.9 0.8 3.2 0 3.2C-0.9 3.2 -1.7 2.9 -2.6 2.3C-3.5 1.7 -4.5 0.9 -4.7 -0.2C-4.9 -1.2 -4.3 -2.5 -3.4 -3.3C-2.5 -4.1 -1.2 -4.5 -0.1 -4.4C1.1 -4.3 2.1 -3.7 2.6 -2.9Z" fill="#343434"></path></g><g transform="translate(46 593)"><path d="M2.6 -2.6C3.3 -1.8 4 -0.9 3.9 -0.1C3.9 0.8 3.1 1.5 2.3 2C1.5 2.5 0.8 2.7 0.1 2.6C-0.6 2.6 -1.2 2.2 -1.7 1.7C-2.3 1.2 -2.7 0.6 -2.8 -0.1C-2.9 -0.8 -2.6 -1.5 -2.1 -2.3C-1.5 -3.2 -0.8 -4 0.1 -4.1C0.9 -4.1 1.8 -3.4 2.6 -2.6Z" fill="#343434"></path></g><g transform="translate(37 148)"><path d="M3.9 -3.8C4.6 -3.2 4.4 -1.6 4.4 0C4.4 1.6 4.6 3.2 3.9 4.3C3.2 5.4 1.6 6 0.4 5.6C-0.9 5.3 -1.8 4 -2.9 2.9C-4 1.8 -5.4 0.9 -5.4 0C-5.4 -0.9 -4 -1.8 -2.9 -2.4C-1.8 -3 -0.9 -3.4 0.4 -3.8C1.6 -4.1 3.2 -4.4 3.9 -3.8Z" fill="#343434"></path></g><g transform="translate(6 466)"><path d="M2.1 -2.3C2.5 -1.7 2.5 -0.8 2.4 0C2.4 0.8 2.3 1.5 1.9 2C1.5 2.4 0.8 2.6 0 2.6C-0.7 2.6 -1.4 2.3 -1.8 1.9C-2.1 1.4 -2.1 0.7 -2 0C-2 -0.6 -1.9 -1.2 -1.6 -1.9C-1.2 -2.6 -0.6 -3.2 0.1 -3.4C0.8 -3.5 1.7 -3 2.1 -2.3Z" fill="#343434"></path></g><g transform="translate(28 293)"><path d="M3.4 -3.1C4.4 -2.4 5.2 -1.2 5.2 0.1C5.3 1.3 4.7 2.7 3.7 3.7C2.7 4.8 1.3 5.6 -0.2 5.7C-1.7 5.9 -3.4 5.5 -4.7 4.4C-6 3.4 -7 1.7 -6.7 0.2C-6.5 -1.2 -5 -2.4 -3.7 -3.1C-2.4 -3.8 -1.2 -4 0 -4C1.2 -4 2.4 -3.8 3.4 -3.1Z" fill="#343434"></path></g><g transform="translate(23 573)"><path d="M2.3 -2.5C2.9 -1.7 3.2 -0.9 3.2 -0.1C3.1 0.7 2.6 1.4 2 2C1.4 2.7 0.7 3.3 -0.2 3.4C-1 3.6 -2.1 3.4 -2.7 2.7C-3.3 2.1 -3.5 1 -3.3 0.2C-3.1 -0.6 -2.5 -1.3 -1.9 -2.1C-1.3 -2.8 -0.6 -3.7 0.1 -3.9C0.9 -4 1.7 -3.3 2.3 -2.5Z" fill="#343434"></path></g><g transform="translate(1 114)"><path d="M2.2 -2C2.8 -1.7 3 -0.8 2.9 -0.1C2.7 0.6 2.2 1.2 1.7 1.8C1.2 2.4 0.6 3.1 0 3C-0.5 3 -1 2.2 -1.5 1.6C-2 1 -2.6 0.5 -2.8 -0.2C-3 -0.9 -2.9 -1.8 -2.3 -2.1C-1.8 -2.5 -0.9 -2.3 0 -2.2C0.8 -2.2 1.7 -2.4 2.2 -2Z" fill="#343434"></path></g><g transform="translate(25 504)"><path d="M1.6 -1.6C2.1 -1.1 2.5 -0.6 2.5 0C2.4 0.5 1.9 1 1.5 1.4C1 1.8 0.5 2.1 0 2.1C-0.6 2.2 -1.1 1.9 -1.6 1.5C-2 1.1 -2.3 0.6 -2.4 -0.1C-2.4 -0.7 -2.3 -1.4 -1.8 -1.9C-1.4 -2.4 -0.7 -2.6 -0.1 -2.6C0.6 -2.5 1.1 -2.1 1.6 -1.6Z" fill="#343434"></path></g><g transform="translate(44 238)"><path d="M2.5 -2.4C3 -1.9 3.3 -0.9 3.4 0.1C3.5 1.2 3.6 2.4 3 3.2C2.4 3.9 1.2 4.2 -0.1 4.3C-1.4 4.4 -2.8 4.3 -3.7 3.6C-4.6 2.8 -5 1.4 -4.8 0.1C-4.7 -1.1 -4.1 -2.3 -3.2 -2.8C-2.3 -3.4 -1.1 -3.3 -0.1 -3.2C0.9 -3.1 1.9 -3 2.5 -2.4Z" fill="#343434"></path></g><g transform="translate(2 437)"><path d="M1.2 -1.3C1.5 -0.9 1.7 -0.5 1.7 0C1.7 0.4 1.5 0.9 1.2 1.3C0.9 1.7 0.4 2 0 2C-0.5 2.1 -0.9 1.7 -1.4 1.3C-1.9 0.9 -2.3 0.5 -2.4 0C-2.4 -0.5 -2 -1.1 -1.5 -1.5C-1.1 -1.8 -0.5 -2.1 0 -2C0.5 -2 0.9 -1.7 1.2 -1.3Z" fill="#343434"></path></g><g transform="translate(46 206)"><path d="M1.7 -2C2.1 -1.4 2.1 -0.7 2 -0.1C1.9 0.5 1.7 1 1.4 1.6C1 2.2 0.5 2.8 -0.1 2.9C-0.7 3 -1.4 2.6 -1.9 2C-2.5 1.4 -2.9 0.7 -3 -0.1C-3.1 -0.9 -2.9 -1.8 -2.4 -2.4C-1.8 -3.1 -0.9 -3.4 -0.1 -3.3C0.7 -3.2 1.4 -2.6 1.7 -2Z" fill="#343434"></path></g><g transform="translate(17 718)"><path d="M3 -2.9C4 -2 5 -1 5.1 0.1C5.2 1.2 4.5 2.5 3.5 3.2C2.5 3.9 1.2 4.2 -0.2 4.4C-1.6 4.5 -3.2 4.7 -4 3.9C-4.9 3.2 -4.9 1.6 -4.6 0.3C-4.3 -1 -3.6 -2 -2.8 -2.8C-2 -3.6 -1 -4.4 0 -4.4C1 -4.4 2 -3.7 3 -2.9Z" fill="#343434"></path></g><g transform="translate(1 366)"><path d="M3.1 -3.4C3.7 -2.4 3.8 -1.2 3.6 -0.2C3.4 0.8 2.9 1.6 2.3 2.3C1.6 3 0.8 3.5 0 3.5C-0.8 3.5 -1.6 3 -2.3 2.3C-3 1.6 -3.5 0.8 -3.8 -0.3C-4.1 -1.4 -4.1 -2.8 -3.4 -3.7C-2.8 -4.7 -1.4 -5.3 -0.1 -5.2C1.2 -5.1 2.4 -4.3 3.1 -3.4Z" fill="#343434"></path></g><g transform="translate(21 696)"><path d="M4.4 -4.8C5.2 -3.7 4.7 -1.9 4.5 -0.2C4.4 1.5 4.4 3 3.7 3.7C3 4.4 1.5 4.2 0 4.2C-1.5 4.3 -3 4.4 -4.1 3.7C-5.1 3 -5.7 1.5 -5.6 0.1C-5.5 -1.3 -4.7 -2.7 -3.7 -3.7C-2.7 -4.7 -1.3 -5.5 0.3 -5.8C1.9 -6 3.7 -5.8 4.4 -4.8Z" fill="#343434"></path></g><g transform="translate(1 572)"><path d="M3.5 -3.5C4.6 -2.4 5.7 -1.2 6 0.3C6.2 1.7 5.7 3.4 4.5 4.3C3.4 5.2 1.7 5.3 0.2 5C-1.2 4.8 -2.4 4.2 -3.5 3.3C-4.6 2.4 -5.5 1.2 -5.4 0.1C-5.3 -1 -4.1 -2 -3 -3.1C-2 -4.2 -1 -5.4 0.1 -5.5C1.2 -5.6 2.4 -4.6 3.5 -3.5Z" fill="#343434"></path></g><g transform="translate(1 292)"><path d="M3.1 -3.2C3.8 -2.4 4.1 -1.2 4 -0.1C3.9 1.1 3.6 2.1 2.8 2.7C2.1 3.3 1.1 3.4 0.1 3.3C-0.8 3.2 -1.6 2.8 -2.2 2.2C-2.8 1.6 -3.2 0.8 -3.4 -0.2C-3.6 -1.3 -3.7 -2.5 -3.1 -3.3C-2.5 -4 -1.3 -4.3 0 -4.2C1.2 -4.2 2.4 -3.9 3.1 -3.2Z" fill="#343434"></path></g><g transform="translate(46 27)"><path d="M2.6 -2.7C3.1 -2.1 3.1 -1.1 2.9 -0.2C2.8 0.8 2.5 1.5 2 2C1.5 2.5 0.8 2.6 0.1 2.6C-0.6 2.5 -1.3 2.2 -1.9 1.7C-2.5 1.3 -3 0.6 -3.1 -0.1C-3.2 -0.8 -2.8 -1.7 -2.3 -2.2C-1.7 -2.8 -0.8 -3 0.1 -3.1C1.1 -3.3 2.1 -3.2 2.6 -2.7Z" fill="#343434"></path></g><g transform="translate(1 60)"><path d="M1.2 -1.3C1.5 -0.9 1.7 -0.4 1.7 0C1.7 0.5 1.6 0.9 1.2 1.4C0.9 1.9 0.5 2.4 0 2.4C-0.6 2.5 -1.1 2.1 -1.6 1.6C-2 1.1 -2.4 0.6 -2.3 0.1C-2.2 -0.4 -1.8 -0.8 -1.3 -1.3C-0.8 -1.7 -0.4 -2.1 0 -2.1C0.4 -2.1 0.9 -1.7 1.2 -1.3Z" fill="#343434"></path></g><g transform="translate(21 126)"><path d="M2.4 -2.4C3.1 -1.8 3.6 -0.9 3.8 0.3C4.1 1.4 4.1 2.8 3.4 3.4C2.8 4.1 1.4 4 0 4C-1.3 3.9 -2.6 3.9 -3.2 3.2C-3.8 2.6 -3.8 1.3 -3.8 0C-3.7 -1.2 -3.7 -2.4 -3 -3C-2.4 -3.7 -1.2 -3.7 -0.2 -3.6C0.9 -3.4 1.8 -3 2.4 -2.4Z" fill="#343434"></path></g><g transform="translate(41 72)"><path d="M1.6 -1.6C2.1 -1.1 2.5 -0.6 2.5 0C2.5 0.6 2.2 1.2 1.7 1.5C1.2 1.8 0.6 1.8 0.1 1.7C-0.4 1.6 -0.8 1.4 -1.1 1.1C-1.4 0.8 -1.5 0.4 -1.7 -0.1C-1.8 -0.7 -1.9 -1.3 -1.6 -1.8C-1.3 -2.3 -0.7 -2.6 0 -2.5C0.6 -2.5 1.1 -2.1 1.6 -1.6Z" fill="#343434"></path></g></g></svg>