<svg id="visual" viewBox="0 0 900 600" width="900" height="600" xmlns="http://www.w3.org/2000/svg" xmlns:xlink="http://www.w3.org/1999/xlink" version="1.1"><rect x="0" y="0" width="900" height="600" fill="#282828"></rect><path d="M595 600L589.7 591.7C584.3 583.3 573.7 566.7 572.7 550C571.7 533.3 580.3 516.7 578.8 500C577.3 483.3 565.7 466.7 561.3 450C557 433.3 560 416.7 566.2 400C572.3 383.3 581.7 366.7 575.5 350C569.3 333.3 547.7 316.7 539.3 300C531 283.3 536 266.7 547.8 250C559.7 233.3 578.3 216.7 576 200C573.7 183.3 550.3 166.7 543.8 150C537.3 133.3 547.7 116.7 553.7 100C559.7 83.3 561.3 66.7 566.2 50C571 33.3 579 16.7 583 8.3L587 0L900 0L900 8.3C900 16.7 900 33.3 900 50C900 66.7 900 83.3 900 100C900 116.7 900 133.3 900 150C900 166.7 900 183.3 900 200C900 216.7 900 233.3 900 250C900 266.7 900 283.3 900 300C900 316.7 900 333.3 900 350C900 366.7 900 383.3 900 400C900 416.7 900 433.3 900 450C900 466.7 900 483.3 900 500C900 516.7 900 533.3 900 550C900 566.7 900 583.3 900 591.7L900 600Z" fill="#4a4a4a"></path><path d="M580 600L577.7 591.7C575.3 583.3 570.7 566.7 574.5 550C578.3 533.3 590.7 516.7 590.7 500C590.7 483.3 578.3 466.7 578 450C577.7 433.3 589.3 416.7 593.5 400C597.7 383.3 594.3 366.7 598.3 350C602.3 333.3 613.7 316.7 610.3 300C607 283.3 589 266.7 580.5 250C572 233.3 573 216.7 573.7 200C574.3 183.3 574.7 166.7 572.7 150C570.7 133.3 566.3 116.7 574.7 100C583 83.3 604 66.7 614 50C624 33.3 623 16.7 622.5 8.3L622 0L900 0L900 8.3C900 16.7 900 33.3 900 50C900 66.7 900 83.3 900 100C900 116.7 900 133.3 900 150C900 166.7 900 183.3 900 200C900 216.7 900 233.3 900 250C900 266.7 900 283.3 900 300C900 316.7 900 333.3 900 350C900 366.7 900 383.3 900 400C900 416.7 900 433.3 900 450C900 466.7 900 483.3 900 500C900 516.7 900 533.3 900 550C900 566.7 900 583.3 900 591.7L900 600Z" fill="#424242"></path><path d="M631 600L633 591.7C635 583.3 639 566.7 635.5 550C632 533.3 621 516.7 619.2 500C617.3 483.3 624.7 466.7 629.7 450C634.7 433.3 637.3 416.7 639 400C640.7 383.3 641.3 366.7 635.8 350C630.3 333.3 618.7 316.7 612.5 300C606.3 283.3 605.7 266.7 607.3 250C609 233.3 613 216.7 615.7 200C618.3 183.3 619.7 166.7 618.7 150C617.7 133.3 614.3 116.7 614.7 100C615 83.3 619 66.7 620.3 50C621.7 33.3 620.3 16.7 619.7 8.3L619 0L900 0L900 8.3C900 16.7 900 33.3 900 50C900 66.7 900 83.3 900 100C900 116.7 900 133.3 900 150C900 166.7 900 183.3 900 200C900 216.7 900 233.3 900 250C900 266.7 900 283.3 900 300C900 316.7 900 333.3 900 350C900 366.7 900 383.3 900 400C900 416.7 900 433.3 900 450C900 466.7 900 483.3 900 500C900 516.7 900 533.3 900 550C900 566.7 900 583.3 900 591.7L900 600Z" fill="#3a3a3a"></path><path d="M684 600L685.2 591.7C686.3 583.3 688.7 566.7 684.5 550C680.3 533.3 669.7 516.7 661.7 500C653.7 483.3 648.3 466.7 644.3 450C640.3 433.3 637.7 416.7 644.7 400C651.7 383.3 668.3 366.7 671 350C673.7 333.3 662.3 316.7 654.2 300C646 283.3 641 266.7 643.2 250C645.3 233.3 654.7 216.7 654 200C653.3 183.3 642.7 166.7 645.2 150C647.7 133.3 663.3 116.7 668.3 100C673.3 83.3 667.7 66.7 660.8 50C654 33.3 646 16.7 642 8.3L638 0L900 0L900 8.3C900 16.7 900 33.3 900 50C900 66.7 900 83.3 900 100C900 116.7 900 133.3 900 150C900 166.7 900 183.3 900 200C900 216.7 900 233.3 900 250C900 266.7 900 283.3 900 300C900 316.7 900 333.3 900 350C900 366.7 900 383.3 900 400C900 416.7 900 433.3 900 450C900 466.7 900 483.3 900 500C900 516.7 900 533.3 900 550C900 566.7 900 583.3 900 591.7L900 600Z" fill="#323232"></path><path d="M704 600L698.5 591.7C693 583.3 682 566.7 679.2 550C676.3 533.3 681.7 516.7 688.7 500C695.7 483.3 704.3 466.7 704.5 450C704.7 433.3 696.3 416.7 693 400C689.7 383.3 691.3 366.7 690.3 350C689.3 333.3 685.7 316.7 685.7 300C685.7 283.3 689.3 266.7 687.2 250C685 233.3 677 216.7 679 200C681 183.3 693 166.7 692.8 150C692.7 133.3 680.3 116.7 677.8 100C675.3 83.3 682.7 66.7 689.7 50C696.7 33.3 703.3 16.7 706.7 8.3L710 0L900 0L900 8.3C900 16.7 900 33.3 900 50C900 66.7 900 83.3 900 100C900 116.7 900 133.3 900 150C900 166.7 900 183.3 900 200C900 216.7 900 233.3 900 250C900 266.7 900 283.3 900 300C900 316.7 900 333.3 900 350C900 366.7 900 383.3 900 400C900 416.7 900 433.3 900 450C900 466.7 900 483.3 900 500C900 516.7 900 533.3 900 550C900 566.7 900 583.3 900 591.7L900 600Z" fill="#2b2b2b"></path><path d="M737 600L732.7 591.7C728.3 583.3 719.7 566.7 719.3 550C719 533.3 727 516.7 730.5 500C734 483.3 733 466.7 734.3 450C735.7 433.3 739.3 416.7 739.5 400C739.7 383.3 736.3 366.7 732.3 350C728.3 333.3 723.7 316.7 721.2 300C718.7 283.3 718.3 266.7 717.7 250C717 233.3 716 216.7 715.2 200C714.3 183.3 713.7 166.7 715.5 150C717.3 133.3 721.7 116.7 725.2 100C728.7 83.3 731.3 66.7 732.7 50C734 33.3 734 16.7 734 8.3L734 0L900 0L900 8.3C900 16.7 900 33.3 900 50C900 66.7 900 83.3 900 100C900 116.7 900 133.3 900 150C900 166.7 900 183.3 900 200C900 216.7 900 233.3 900 250C900 266.7 900 283.3 900 300C900 316.7 900 333.3 900 350C900 366.7 900 383.3 900 400C900 416.7 900 433.3 900 450C900 466.7 900 483.3 900 500C900 516.7 900 533.3 900 550C900 566.7 900 583.3 900 591.7L900 600Z" fill="#232323"></path><path d="M776 600L774.2 591.7C772.3 583.3 768.7 566.7 762.7 550C756.7 533.3 748.3 516.7 744.5 500C740.7 483.3 741.3 466.7 744 450C746.7 433.3 751.3 416.7 751.5 400C751.7 383.3 747.3 366.7 750.7 350C754 333.3 765 316.7 768.3 300C771.7 283.3 767.3 266.7 763.8 250C760.3 233.3 757.7 216.7 758.8 200C760 183.3 765 166.7 767.3 150C769.7 133.3 769.3 116.7 764.8 100C760.3 83.3 751.7 66.7 747.8 50C744 33.3 745 16.7 745.5 8.3L746 0L900 0L900 8.3C900 16.7 900 33.3 900 50C900 66.7 900 83.3 900 100C900 116.7 900 133.3 900 150C900 166.7 900 183.3 900 200C900 216.7 900 233.3 900 250C900 266.7 900 283.3 900 300C900 316.7 900 333.3 900 350C900 366.7 900 383.3 900 400C900 416.7 900 433.3 900 450C900 466.7 900 483.3 900 500C900 516.7 900 533.3 900 550C900 566.7 900 583.3 900 591.7L900 600Z" fill="#1c1c1c"></path><path d="M787 600L789.8 591.7C792.7 583.3 798.3 566.7 797.3 550C796.3 533.3 788.7 516.7 788.3 500C788 483.3 795 466.7 794 450C793 433.3 784 416.7 781.5 400C779 383.3 783 366.7 783 350C783 333.3 779 316.7 780.5 300C782 283.3 789 266.7 789.2 250C789.3 233.3 782.7 216.7 782.2 200C781.7 183.3 787.3 166.7 790.3 150C793.3 133.3 793.7 116.7 793.7 100C793.7 83.3 793.3 66.7 794.8 50C796.3 33.3 799.7 16.7 801.3 8.3L803 0L900 0L900 8.3C900 16.7 900 33.3 900 50C900 66.7 900 83.3 900 100C900 116.7 900 133.3 900 150C900 166.7 900 183.3 900 200C900 216.7 900 233.3 900 250C900 266.7 900 283.3 900 300C900 316.7 900 333.3 900 350C900 366.7 900 383.3 900 400C900 416.7 900 433.3 900 450C900 466.7 900 483.3 900 500C900 516.7 900 533.3 900 550C900 566.7 900 583.3 900 591.7L900 600Z" fill="#151515"></path><path d="M825 600L825.3 591.7C825.7 583.3 826.3 566.7 825.8 550C825.3 533.3 823.7 516.7 823.3 500C823 483.3 824 466.7 822.2 450C820.3 433.3 815.7 416.7 813 400C810.3 383.3 809.7 366.7 810.8 350C812 333.3 815 316.7 816.2 300C817.3 283.3 816.7 266.7 816.2 250C815.7 233.3 815.3 216.7 817 200C818.7 183.3 822.3 166.7 822.3 150C822.3 133.3 818.7 116.7 818.7 100C818.7 83.3 822.3 66.7 824.3 50C826.3 33.3 826.7 16.7 826.8 8.3L827 0L900 0L900 8.3C900 16.7 900 33.3 900 50C900 66.7 900 83.3 900 100C900 116.7 900 133.3 900 150C900 166.7 900 183.3 900 200C900 216.7 900 233.3 900 250C900 266.7 900 283.3 900 300C900 316.7 900 333.3 900 350C900 366.7 900 383.3 900 400C900 416.7 900 433.3 900 450C900 466.7 900 483.3 900 500C900 516.7 900 533.3 900 550C900 566.7 900 583.3 900 591.7L900 600Z" fill="#0c0c0c"></path><path d="M857 600L856.2 591.7C855.3 583.3 853.7 566.7 851.5 550C849.3 533.3 846.7 516.7 847.5 500C848.3 483.3 852.7 466.7 853.7 450C854.7 433.3 852.3 416.7 850.3 400C848.3 383.3 846.7 366.7 847.7 350C848.7 333.3 852.3 316.7 853.7 300C855 283.3 854 266.7 854.3 250C854.7 233.3 856.3 216.7 857 200C857.7 183.3 857.3 166.7 856.5 150C855.7 133.3 854.3 116.7 853 100C851.7 83.3 850.3 66.7 851.2 50C852 33.3 855 16.7 856.5 8.3L858 0L900 0L900 8.3C900 16.7 900 33.3 900 50C900 66.7 900 83.3 900 100C900 116.7 900 133.3 900 150C900 166.7 900 183.3 900 200C900 216.7 900 233.3 900 250C900 266.7 900 283.3 900 300C900 316.7 900 333.3 900 350C900 366.7 900 383.3 900 400C900 416.7 900 433.3 900 450C900 466.7 900 483.3 900 500C900 516.7 900 533.3 900 550C900 566.7 900 583.3 900 591.7L900 600Z" fill="#000000"></path></svg>