<svg id="visual" viewBox="0 0 200 600" width="200" height="600" xmlns="http://www.w3.org/2000/svg" xmlns:xlink="http://www.w3.org/1999/xlink" version="1.1"><rect x="0" y="0" width="200" height="600" fill="#282828"></rect><path d="M167 600L166.3 591.7C165.7 583.3 164.3 566.7 164.2 550C164 533.3 165 516.7 164.8 500C164.7 483.3 163.3 466.7 162.8 450C162.3 433.3 162.7 416.7 163.5 400C164.3 383.3 165.7 366.7 165 350C164.3 333.3 161.7 316.7 160.7 300C159.7 283.3 160.3 266.7 161.7 250C163 233.3 165 216.7 164.7 200C164.3 183.3 161.7 166.7 161 150C160.3 133.3 161.7 116.7 162.3 100C163 83.3 163 66.7 163.5 50C164 33.3 165 16.7 165.5 8.3L166 0L200 0L200 8.3C200 16.7 200 33.3 200 50C200 66.7 200 83.3 200 100C200 116.7 200 133.3 200 150C200 166.7 200 183.3 200 200C200 216.7 200 233.3 200 250C200 266.7 200 283.3 200 300C200 316.7 200 333.3 200 350C200 366.7 200 383.3 200 400C200 416.7 200 433.3 200 450C200 466.7 200 483.3 200 500C200 516.7 200 533.3 200 550C200 566.7 200 583.3 200 591.7L200 600Z" fill="#4a4a4a"></path><path d="M165 600L164.8 591.7C164.7 583.3 164.3 566.7 164.8 550C165.3 533.3 166.7 516.7 166.7 500C166.7 483.3 165.3 466.7 165.3 450C165.3 433.3 166.7 416.7 167.2 400C167.7 383.3 167.3 366.7 167.7 350C168 333.3 169 316.7 168.5 300C168 283.3 166 266.7 165.2 250C164.3 233.3 164.7 216.7 164.8 200C165 183.3 165 166.7 164.7 150C164.3 133.3 163.7 116.7 164.5 100C165.3 83.3 167.7 66.7 168.8 50C170 33.3 170 16.7 170 8.3L170 0L200 0L200 8.3C200 16.7 200 33.3 200 50C200 66.7 200 83.3 200 100C200 116.7 200 133.3 200 150C200 166.7 200 183.3 200 200C200 216.7 200 233.3 200 250C200 266.7 200 283.3 200 300C200 316.7 200 333.3 200 350C200 366.7 200 383.3 200 400C200 416.7 200 433.3 200 450C200 466.7 200 483.3 200 500C200 516.7 200 533.3 200 550C200 566.7 200 583.3 200 591.7L200 600Z" fill="#424242"></path><path d="M171 600L171.2 591.7C171.3 583.3 171.7 566.7 171.3 550C171 533.3 170 516.7 169.8 500C169.7 483.3 170.3 466.7 170.8 450C171.3 433.3 171.7 416.7 171.8 400C172 383.3 172 366.7 171.3 350C170.7 333.3 169.3 316.7 168.7 300C168 283.3 168 266.7 168.2 250C168.3 233.3 168.7 216.7 169 200C169.3 183.3 169.7 166.7 169.7 150C169.7 133.3 169.3 116.7 169.3 100C169.3 83.3 169.7 66.7 169.8 50C170 33.3 170 16.7 170 8.3L170 0L200 0L200 8.3C200 16.7 200 33.3 200 50C200 66.7 200 83.3 200 100C200 116.7 200 133.3 200 150C200 166.7 200 183.3 200 200C200 216.7 200 233.3 200 250C200 266.7 200 283.3 200 300C200 316.7 200 333.3 200 350C200 366.7 200 383.3 200 400C200 416.7 200 433.3 200 450C200 466.7 200 483.3 200 500C200 516.7 200 533.3 200 550C200 566.7 200 583.3 200 591.7L200 600Z" fill="#3a3a3a"></path><path d="M177 600L177.2 591.7C177.3 583.3 177.7 566.7 177.2 550C176.7 533.3 175.3 516.7 174.3 500C173.3 483.3 172.7 466.7 172.2 450C171.7 433.3 171.3 416.7 172.2 400C173 383.3 175 366.7 175.3 350C175.7 333.3 174.3 316.7 173.5 300C172.7 283.3 172.3 266.7 172.7 250C173 233.3 174 216.7 173.8 200C173.7 183.3 172.3 166.7 172.5 150C172.7 133.3 174.3 116.7 174.8 100C175.3 83.3 174.7 66.7 174 50C173.3 33.3 172.7 16.7 172.3 8.3L172 0L200 0L200 8.3C200 16.7 200 33.3 200 50C200 66.7 200 83.3 200 100C200 116.7 200 133.3 200 150C200 166.7 200 183.3 200 200C200 216.7 200 233.3 200 250C200 266.7 200 283.3 200 300C200 316.7 200 333.3 200 350C200 366.7 200 383.3 200 400C200 416.7 200 433.3 200 450C200 466.7 200 483.3 200 500C200 516.7 200 533.3 200 550C200 566.7 200 583.3 200 591.7L200 600Z" fill="#323232"></path><path d="M179 600L178.3 591.7C177.7 583.3 176.3 566.7 176 550C175.7 533.3 176.3 516.7 177.2 500C178 483.3 179 466.7 179 450C179 433.3 178 416.7 177.7 400C177.3 383.3 177.7 366.7 177.7 350C177.7 333.3 177.3 316.7 177.3 300C177.3 283.3 177.7 266.7 177.3 250C177 233.3 176 216.7 176.2 200C176.3 183.3 177.7 166.7 177.7 150C177.7 133.3 176.3 116.7 176.2 100C176 83.3 177 66.7 177.8 50C178.7 33.3 179.3 16.7 179.7 8.3L180 0L200 0L200 8.3C200 16.7 200 33.3 200 50C200 66.7 200 83.3 200 100C200 116.7 200 133.3 200 150C200 166.7 200 183.3 200 200C200 216.7 200 233.3 200 250C200 266.7 200 283.3 200 300C200 316.7 200 333.3 200 350C200 366.7 200 383.3 200 400C200 416.7 200 433.3 200 450C200 466.7 200 483.3 200 500C200 516.7 200 533.3 200 550C200 566.7 200 583.3 200 591.7L200 600Z" fill="#2b2b2b"></path><path d="M183 600L182.5 591.7C182 583.3 181 566.7 181 550C181 533.3 182 516.7 182.3 500C182.7 483.3 182.3 466.7 182.3 450C182.3 433.3 182.7 416.7 182.7 400C182.7 383.3 182.3 366.7 182 350C181.7 333.3 181.3 316.7 181.2 300C181 283.3 181 266.7 180.8 250C180.7 233.3 180.3 216.7 180.2 200C180 183.3 180 166.7 180.3 150C180.7 133.3 181.3 116.7 181.7 100C182 83.3 182 66.7 182 50C182 33.3 182 16.7 182 8.3L182 0L200 0L200 8.3C200 16.7 200 33.3 200 50C200 66.7 200 83.3 200 100C200 116.7 200 133.3 200 150C200 166.7 200 183.3 200 200C200 216.7 200 233.3 200 250C200 266.7 200 283.3 200 300C200 316.7 200 333.3 200 350C200 366.7 200 383.3 200 400C200 416.7 200 433.3 200 450C200 466.7 200 483.3 200 500C200 516.7 200 533.3 200 550C200 566.7 200 583.3 200 591.7L200 600Z" fill="#232323"></path><path d="M187 600L186.8 591.7C186.7 583.3 186.3 566.7 185.7 550C185 533.3 184 516.7 183.5 500C183 483.3 183 466.7 183.3 450C183.7 433.3 184.3 416.7 184.3 400C184.3 383.3 183.7 366.7 184 350C184.3 333.3 185.7 316.7 186.2 300C186.7 283.3 186.3 266.7 186 250C185.7 233.3 185.3 216.7 185.3 200C185.3 183.3 185.7 166.7 185.8 150C186 133.3 186 116.7 185.5 100C185 83.3 184 66.7 183.7 50C183.3 33.3 183.7 16.7 183.8 8.3L184 0L200 0L200 8.3C200 16.7 200 33.3 200 50C200 66.7 200 83.3 200 100C200 116.7 200 133.3 200 150C200 166.7 200 183.3 200 200C200 216.7 200 233.3 200 250C200 266.7 200 283.3 200 300C200 316.7 200 333.3 200 350C200 366.7 200 383.3 200 400C200 416.7 200 433.3 200 450C200 466.7 200 483.3 200 500C200 516.7 200 533.3 200 550C200 566.7 200 583.3 200 591.7L200 600Z" fill="#1c1c1c"></path><path d="M188 600L188.3 591.7C188.7 583.3 189.3 566.7 189.3 550C189.3 533.3 188.7 516.7 188.7 500C188.7 483.3 189.3 466.7 189.2 450C189 433.3 188 416.7 187.7 400C187.3 383.3 187.7 366.7 187.7 350C187.7 333.3 187.3 316.7 187.5 300C187.7 283.3 188.3 266.7 188.3 250C188.3 233.3 187.7 216.7 187.7 200C187.7 183.3 188.3 166.7 188.7 150C189 133.3 189 116.7 189 100C189 83.3 189 66.7 189.2 50C189.3 33.3 189.7 16.7 189.8 8.3L190 0L200 0L200 8.3C200 16.7 200 33.3 200 50C200 66.7 200 83.3 200 100C200 116.7 200 133.3 200 150C200 166.7 200 183.3 200 200C200 216.7 200 233.3 200 250C200 266.7 200 283.3 200 300C200 316.7 200 333.3 200 350C200 366.7 200 383.3 200 400C200 416.7 200 433.3 200 450C200 466.7 200 483.3 200 500C200 516.7 200 533.3 200 550C200 566.7 200 583.3 200 591.7L200 600Z" fill="#151515"></path><path d="M193 600L193 591.7C193 583.3 193 566.7 192.8 550C192.7 533.3 192.3 516.7 192.3 500C192.3 483.3 192.7 466.7 192.5 450C192.3 433.3 191.7 416.7 191.3 400C191 383.3 191 366.7 191.2 350C191.3 333.3 191.7 316.7 191.8 300C192 283.3 192 266.7 191.8 250C191.7 233.3 191.3 216.7 191.5 200C191.7 183.3 192.3 166.7 192.3 150C192.3 133.3 191.7 116.7 191.7 100C191.7 83.3 192.3 66.7 192.7 50C193 33.3 193 16.7 193 8.3L193 0L200 0L200 8.3C200 16.7 200 33.3 200 50C200 66.7 200 83.3 200 100C200 116.7 200 133.3 200 150C200 166.7 200 183.3 200 200C200 216.7 200 233.3 200 250C200 266.7 200 283.3 200 300C200 316.7 200 333.3 200 350C200 366.7 200 383.3 200 400C200 416.7 200 433.3 200 450C200 466.7 200 483.3 200 500C200 516.7 200 533.3 200 550C200 566.7 200 583.3 200 591.7L200 600Z" fill="#0c0c0c"></path><path d="M196 600L196 591.7C196 583.3 196 566.7 195.8 550C195.7 533.3 195.3 516.7 195.3 500C195.3 483.3 195.7 466.7 195.7 450C195.7 433.3 195.3 416.7 195.2 400C195 383.3 195 366.7 195.2 350C195.3 333.3 195.7 316.7 195.8 300C196 283.3 196 266.7 196 250C196 233.3 196 216.7 196 200C196 183.3 196 166.7 196 150C196 133.3 196 116.7 195.8 100C195.7 83.3 195.3 66.7 195.3 50C195.3 33.3 195.7 16.7 195.8 8.3L196 0L200 0L200 8.3C200 16.7 200 33.3 200 50C200 66.7 200 83.3 200 100C200 116.7 200 133.3 200 150C200 166.7 200 183.3 200 200C200 216.7 200 233.3 200 250C200 266.7 200 283.3 200 300C200 316.7 200 333.3 200 350C200 366.7 200 383.3 200 400C200 416.7 200 433.3 200 450C200 466.7 200 483.3 200 500C200 516.7 200 533.3 200 550C200 566.7 200 583.3 200 591.7L200 600Z" fill="#000000"></path></svg>