<svg id="visual" viewBox="0 0 200 600" width="200" height="600" xmlns="http://www.w3.org/2000/svg" xmlns:xlink="http://www.w3.org/1999/xlink" version="1.1"><rect x="0" y="0" width="200" height="600" fill="#1a1a1a"></rect><path d="M178 600L177.7 591.7C177.3 583.3 176.7 566.7 176.7 550C176.7 533.3 177.3 516.7 177.2 500C177 483.3 176 466.7 175.7 450C175.3 433.3 175.7 416.7 176.2 400C176.7 383.3 177.3 366.7 176.8 350C176.3 333.3 174.7 316.7 174 300C173.3 283.3 173.7 266.7 174.5 250C175.3 233.3 176.7 216.7 176.5 200C176.3 183.3 174.7 166.7 174.3 150C174 133.3 175 116.7 175.5 100C176 83.3 176 66.7 176.3 50C176.7 33.3 177.3 16.7 177.7 8.3L178 0L200 0L200 8.3C200 16.7 200 33.3 200 50C200 66.7 200 83.3 200 100C200 116.7 200 133.3 200 150C200 166.7 200 183.3 200 200C200 216.7 200 233.3 200 250C200 266.7 200 283.3 200 300C200 316.7 200 333.3 200 350C200 366.7 200 383.3 200 400C200 416.7 200 433.3 200 450C200 466.7 200 483.3 200 500C200 516.7 200 533.3 200 550C200 566.7 200 583.3 200 591.7L200 600Z" fill="#585858"></path><path d="M177 600L176.8 591.7C176.7 583.3 176.3 566.7 176.7 550C177 533.3 178 516.7 178 500C178 483.3 177 466.7 177 450C177 433.3 178 416.7 178.3 400C178.7 383.3 178.3 366.7 178.7 350C179 333.3 180 316.7 179.8 300C179.7 283.3 178.3 266.7 177.7 250C177 233.3 177 216.7 177 200C177 183.3 177 166.7 176.8 150C176.7 133.3 176.3 116.7 177 100C177.7 83.3 179.3 66.7 180 50C180.7 33.3 180.3 16.7 180.2 8.3L180 0L200 0L200 8.3C200 16.7 200 33.3 200 50C200 66.7 200 83.3 200 100C200 116.7 200 133.3 200 150C200 166.7 200 183.3 200 200C200 216.7 200 233.3 200 250C200 266.7 200 283.3 200 300C200 316.7 200 333.3 200 350C200 366.7 200 383.3 200 400C200 416.7 200 433.3 200 450C200 466.7 200 483.3 200 500C200 516.7 200 533.3 200 550C200 566.7 200 583.3 200 591.7L200 600Z" fill="#4e4e4e"></path><path d="M181 600L181.2 591.7C181.3 583.3 181.7 566.7 181.3 550C181 533.3 180 516.7 179.8 500C179.7 483.3 180.3 466.7 180.8 450C181.3 433.3 181.7 416.7 181.8 400C182 383.3 182 366.7 181.5 350C181 333.3 180 316.7 179.5 300C179 283.3 179 266.7 179.2 250C179.3 233.3 179.7 216.7 179.8 200C180 183.3 180 166.7 180 150C180 133.3 180 116.7 180 100C180 83.3 180 66.7 180 50C180 33.3 180 16.7 180 8.3L180 0L200 0L200 8.3C200 16.7 200 33.3 200 50C200 66.7 200 83.3 200 100C200 116.7 200 133.3 200 150C200 166.7 200 183.3 200 200C200 216.7 200 233.3 200 250C200 266.7 200 283.3 200 300C200 316.7 200 333.3 200 350C200 366.7 200 383.3 200 400C200 416.7 200 433.3 200 450C200 466.7 200 483.3 200 500C200 516.7 200 533.3 200 550C200 566.7 200 583.3 200 591.7L200 600Z" fill="#444444"></path><path d="M185 600L185 591.7C185 583.3 185 566.7 184.7 550C184.3 533.3 183.7 516.7 183.2 500C182.7 483.3 182.3 466.7 182 450C181.7 433.3 181.3 416.7 181.8 400C182.3 383.3 183.7 366.7 183.8 350C184 333.3 183 316.7 182.3 300C181.7 283.3 181.3 266.7 181.5 250C181.7 233.3 182.3 216.7 182.3 200C182.3 183.3 181.7 166.7 182 150C182.3 133.3 183.7 116.7 184 100C184.3 83.3 183.7 66.7 183.2 50C182.7 33.3 182.3 16.7 182.2 8.3L182 0L200 0L200 8.3C200 16.7 200 33.3 200 50C200 66.7 200 83.3 200 100C200 116.7 200 133.3 200 150C200 166.7 200 183.3 200 200C200 216.7 200 233.3 200 250C200 266.7 200 283.3 200 300C200 316.7 200 333.3 200 350C200 366.7 200 383.3 200 400C200 416.7 200 433.3 200 450C200 466.7 200 483.3 200 500C200 516.7 200 533.3 200 550C200 566.7 200 583.3 200 591.7L200 600Z" fill="#3b3b3b"></path><path d="M186 600L185.7 591.7C185.3 583.3 184.7 566.7 184.5 550C184.3 533.3 184.7 516.7 185.2 500C185.7 483.3 186.3 466.7 186.3 450C186.3 433.3 185.7 416.7 185.5 400C185.3 383.3 185.7 366.7 185.7 350C185.7 333.3 185.3 316.7 185.3 300C185.3 283.3 185.7 266.7 185.5 250C185.3 233.3 184.7 216.7 184.8 200C185 183.3 186 166.7 186 150C186 133.3 185 116.7 184.7 100C184.3 83.3 184.7 66.7 185.2 50C185.7 33.3 186.3 16.7 186.7 8.3L187 0L200 0L200 8.3C200 16.7 200 33.3 200 50C200 66.7 200 83.3 200 100C200 116.7 200 133.3 200 150C200 166.7 200 183.3 200 200C200 216.7 200 233.3 200 250C200 266.7 200 283.3 200 300C200 316.7 200 333.3 200 350C200 366.7 200 383.3 200 400C200 416.7 200 433.3 200 450C200 466.7 200 483.3 200 500C200 516.7 200 533.3 200 550C200 566.7 200 583.3 200 591.7L200 600Z" fill="#323232"></path><path d="M189 600L188.7 591.7C188.3 583.3 187.7 566.7 187.7 550C187.7 533.3 188.3 516.7 188.5 500C188.7 483.3 188.3 466.7 188.3 450C188.3 433.3 188.7 416.7 188.8 400C189 383.3 189 366.7 188.8 350C188.7 333.3 188.3 316.7 188 300C187.7 283.3 187.3 266.7 187.2 250C187 233.3 187 216.7 187 200C187 183.3 187 166.7 187.2 150C187.3 133.3 187.7 116.7 188 100C188.3 83.3 188.7 66.7 188.8 50C189 33.3 189 16.7 189 8.3L189 0L200 0L200 8.3C200 16.7 200 33.3 200 50C200 66.7 200 83.3 200 100C200 116.7 200 133.3 200 150C200 166.7 200 183.3 200 200C200 216.7 200 233.3 200 250C200 266.7 200 283.3 200 300C200 316.7 200 333.3 200 350C200 366.7 200 383.3 200 400C200 416.7 200 433.3 200 450C200 466.7 200 483.3 200 500C200 516.7 200 533.3 200 550C200 566.7 200 583.3 200 591.7L200 600Z" fill="#292929"></path><path d="M192 600L191.8 591.7C191.7 583.3 191.3 566.7 190.8 550C190.3 533.3 189.7 516.7 189.3 500C189 483.3 189 466.7 189.2 450C189.3 433.3 189.7 416.7 189.7 400C189.7 383.3 189.3 366.7 189.7 350C190 333.3 191 316.7 191.3 300C191.7 283.3 191.3 266.7 191 250C190.7 233.3 190.3 216.7 190.3 200C190.3 183.3 190.7 166.7 190.8 150C191 133.3 191 116.7 190.7 100C190.3 83.3 189.7 66.7 189.3 50C189 33.3 189 16.7 189 8.3L189 0L200 0L200 8.3C200 16.7 200 33.3 200 50C200 66.7 200 83.3 200 100C200 116.7 200 133.3 200 150C200 166.7 200 183.3 200 200C200 216.7 200 233.3 200 250C200 266.7 200 283.3 200 300C200 316.7 200 333.3 200 350C200 366.7 200 383.3 200 400C200 416.7 200 433.3 200 450C200 466.7 200 483.3 200 500C200 516.7 200 533.3 200 550C200 566.7 200 583.3 200 591.7L200 600Z" fill="#202020"></path><path d="M193 600L193.2 591.7C193.3 583.3 193.7 566.7 193.5 550C193.3 533.3 192.7 516.7 192.7 500C192.7 483.3 193.3 466.7 193.3 450C193.3 433.3 192.7 416.7 192.5 400C192.3 383.3 192.7 366.7 192.7 350C192.7 333.3 192.3 316.7 192.3 300C192.3 283.3 192.7 266.7 192.7 250C192.7 233.3 192.3 216.7 192.3 200C192.3 183.3 192.7 166.7 192.8 150C193 133.3 193 116.7 193 100C193 83.3 193 66.7 193.2 50C193.3 33.3 193.7 16.7 193.8 8.3L194 0L200 0L200 8.3C200 16.7 200 33.3 200 50C200 66.7 200 83.3 200 100C200 116.7 200 133.3 200 150C200 166.7 200 183.3 200 200C200 216.7 200 233.3 200 250C200 266.7 200 283.3 200 300C200 316.7 200 333.3 200 350C200 366.7 200 383.3 200 400C200 416.7 200 433.3 200 450C200 466.7 200 483.3 200 500C200 516.7 200 533.3 200 550C200 566.7 200 583.3 200 591.7L200 600Z" fill="#181818"></path><path d="M195 600L195.2 591.7C195.3 583.3 195.7 566.7 195.7 550C195.7 533.3 195.3 516.7 195.2 500C195 483.3 195 466.7 194.8 450C194.7 433.3 194.3 416.7 194.2 400C194 383.3 194 366.7 194.2 350C194.3 333.3 194.7 316.7 194.8 300C195 283.3 195 266.7 195 250C195 233.3 195 216.7 195 200C195 183.3 195 166.7 195 150C195 133.3 195 116.7 195 100C195 83.3 195 66.7 195.2 50C195.3 33.3 195.7 16.7 195.8 8.3L196 0L200 0L200 8.3C200 16.7 200 33.3 200 50C200 66.7 200 83.3 200 100C200 116.7 200 133.3 200 150C200 166.7 200 183.3 200 200C200 216.7 200 233.3 200 250C200 266.7 200 283.3 200 300C200 316.7 200 333.3 200 350C200 366.7 200 383.3 200 400C200 416.7 200 433.3 200 450C200 466.7 200 483.3 200 500C200 516.7 200 533.3 200 550C200 566.7 200 583.3 200 591.7L200 600Z" fill="#0e0e0e"></path><path d="M198 600L197.8 591.7C197.7 583.3 197.3 566.7 197.2 550C197 533.3 197 516.7 197.2 500C197.3 483.3 197.7 466.7 197.7 450C197.7 433.3 197.3 416.7 197.2 400C197 383.3 197 366.7 197.2 350C197.3 333.3 197.7 316.7 197.7 300C197.7 283.3 197.3 266.7 197.3 250C197.3 233.3 197.7 216.7 197.8 200C198 183.3 198 166.7 197.8 150C197.7 133.3 197.3 116.7 197.2 100C197 83.3 197 66.7 197.2 50C197.3 33.3 197.7 16.7 197.8 8.3L198 0L200 0L200 8.3C200 16.7 200 33.3 200 50C200 66.7 200 83.3 200 100C200 116.7 200 133.3 200 150C200 166.7 200 183.3 200 200C200 216.7 200 233.3 200 250C200 266.7 200 283.3 200 300C200 316.7 200 333.3 200 350C200 366.7 200 383.3 200 400C200 416.7 200 433.3 200 450C200 466.7 200 483.3 200 500C200 516.7 200 533.3 200 550C200 566.7 200 583.3 200 591.7L200 600Z" fill="#000000"></path></svg>